<svg xmlns="http://www.w3.org/2000/svg" viewBox="0 0 799 800" width="799" height="800" role="img" aria-label="AP-400-perustuspilari, havainnekuva vinosti ylhäältä"><title>AP-400-perustuspilari, havainnekuva vinosti ylhäältä</title><defs><pattern id="tk-ap400-rae" width="60" height="82" patternUnits="userSpaceOnUse"><circle cx="5" cy="7" r="0.55" fill="#252425" opacity="0.13"></circle><circle cx="17" cy="4" r="0.4" fill="#252425" opacity="0.1"></circle><circle cx="29" cy="11" r="0.65" fill="#252425" opacity="0.11"></circle><circle cx="41" cy="6" r="0.45" fill="#252425" opacity="0.09"></circle><circle cx="9" cy="19" r="0.75" fill="#252425" opacity="0.09"></circle><circle cx="23" cy="23" r="0.5" fill="#252425" opacity="0.12"></circle><circle cx="37" cy="18" r="0.4" fill="#252425" opacity="0.1"></circle><circle cx="49" cy="27" r="0.55" fill="#252425" opacity="0.11"></circle><circle cx="3" cy="33" r="0.45" fill="#252425" opacity="0.12"></circle><circle cx="15" cy="38" r="0.7" fill="#252425" opacity="0.08"></circle><circle cx="31" cy="36" r="0.5" fill="#252425" opacity="0.11"></circle><circle cx="45" cy="43" r="0.4" fill="#252425" opacity="0.12"></circle><circle cx="11" cy="48" r="0.6" fill="#252425" opacity="0.1"></circle><circle cx="25" cy="53" r="0.45" fill="#252425" opacity="0.11"></circle><circle cx="39" cy="50" r="0.55" fill="#252425" opacity="0.09"></circle><circle cx="51" cy="13" r="0.45" fill="#252425" opacity="0.1"></circle><circle cx="7" cy="58" r="0.4" fill="#252425" opacity="0.11"></circle><circle cx="21" cy="63" r="0.65" fill="#252425" opacity="0.09"></circle><circle cx="35" cy="60" r="0.45" fill="#252425" opacity="0.12"></circle><circle cx="47" cy="68" r="0.5" fill="#252425" opacity="0.1"></circle><circle cx="13" cy="72" r="0.55" fill="#252425" opacity="0.09"></circle><circle cx="27" cy="77" r="0.4" fill="#252425" opacity="0.11"></circle><circle cx="43" cy="75" r="0.6" fill="#252425" opacity="0.1"></circle><circle cx="55" cy="35" r="0.45" fill="#252425" opacity="0.11"></circle></pattern><linearGradient id="tk-ap400-valo" gradientUnits="userSpaceOnUse" x1="0" y1="0" x2="0" y2="800"><stop offset="0" stop-color="#ffffff" stop-opacity=".14"></stop><stop offset=".5" stop-color="#ffffff" stop-opacity="0"></stop><stop offset="1" stop-color="#252425" stop-opacity=".07"></stop></linearGradient><filter id="tk-ap400-sumu" x="-30%" y="-30%" width="160%" height="160%"><feGaussianBlur stdDeviation="7"></feGaussianBlur></filter></defs><g filter="url(#tk-ap400-sumu)" opacity=".17"><polygon points="804.61,601.66 409.85,793.11 15.09,601.66 409.85,410.21" fill="var(--ink,#252425)"></polygon></g><polygon points="779.07,595.91 399.5,780 399.5,711.78 769.87,532.16" fill="var(--bet-sivu-b,#aca396)"></polygon><polygon points="779.07,595.91 399.5,780 399.5,711.78 769.87,532.16" fill="url(#tk-ap400-rae)"></polygon><polygon points="779.07,595.91 399.5,780 399.5,711.78 769.87,532.16" fill="url(#tk-ap400-valo)"></polygon><polygon points="779.07,595.91 399.5,780 399.5,711.78 769.87,532.16" fill="none" stroke="var(--bet-viiva,#6d675e)" stroke-width="3.19" stroke-linejoin="round"></polygon><polygon points="399.5,780 19.93,595.91 29.13,532.16 399.5,711.78" fill="var(--bet-sivu-a,#cdc6bb)"></polygon><polygon points="399.5,780 19.93,595.91 29.13,532.16 399.5,711.78" fill="url(#tk-ap400-rae)"></polygon><polygon points="399.5,780 19.93,595.91 29.13,532.16 399.5,711.78" fill="url(#tk-ap400-valo)"></polygon><polygon points="399.5,780 19.93,595.91 29.13,532.16 399.5,711.78" fill="none" stroke="var(--bet-viiva,#6d675e)" stroke-width="2.2" stroke-linejoin="round"></polygon><polyline points="31.23,533.57 397.08,711.05" fill="none" stroke="var(--bet-kiilto,#ffffff)" stroke-width="2.31" stroke-linecap="round" stroke-linejoin="round" opacity=".7"></polyline><polygon points="29.13,532.16 399.5,352.53 399.5,406.24 238.47,484.34" fill="var(--bet-viiste-b,#d5cec2)"></polygon><polygon points="29.13,532.16 399.5,352.53 399.5,406.24 238.47,484.34" fill="url(#tk-ap400-rae)"></polygon><polygon points="29.13,532.16 399.5,352.53 399.5,406.24 238.47,484.34" fill="url(#tk-ap400-valo)"></polygon><polygon points="29.13,532.16 399.5,352.53 399.5,406.24 238.47,484.34" fill="none" stroke="var(--bet-viiva,#6d675e)" stroke-width="2.2" stroke-linejoin="round"></polygon><polygon points="399.5,352.53 769.87,532.16 560.53,484.34 399.5,406.24" fill="var(--bet-sivu-a,#cdc6bb)"></polygon><polygon points="399.5,352.53 769.87,532.16 560.53,484.34 399.5,406.24" fill="url(#tk-ap400-rae)"></polygon><polygon points="399.5,352.53 769.87,532.16 560.53,484.34 399.5,406.24" fill="url(#tk-ap400-valo)"></polygon><polygon points="399.5,352.53 769.87,532.16 560.53,484.34 399.5,406.24" fill="none" stroke="var(--bet-viiva,#6d675e)" stroke-width="3.19" stroke-linejoin="round"></polygon><polygon points="769.87,532.16 399.5,711.78 399.5,562.44 560.53,484.34" fill="var(--bet-viiste-b,#d5cec2)"></polygon><polygon points="769.87,532.16 399.5,711.78 399.5,562.44 560.53,484.34" fill="url(#tk-ap400-rae)"></polygon><polygon points="769.87,532.16 399.5,711.78 399.5,562.44 560.53,484.34" fill="url(#tk-ap400-valo)"></polygon><polygon points="769.87,532.16 399.5,711.78 399.5,562.44 560.53,484.34" fill="none" stroke="var(--bet-viiva,#6d675e)" stroke-width="3.19" stroke-linejoin="round"></polygon><polygon points="399.5,711.78 29.13,532.16 238.47,484.34 399.5,562.44" fill="var(--bet-viiste-a,#eeeae3)"></polygon><polygon points="399.5,711.78 29.13,532.16 238.47,484.34 399.5,562.44" fill="url(#tk-ap400-rae)"></polygon><polygon points="399.5,711.78 29.13,532.16 238.47,484.34 399.5,562.44" fill="url(#tk-ap400-valo)"></polygon><polygon points="399.5,711.78 29.13,532.16 238.47,484.34 399.5,562.44" fill="none" stroke="var(--bet-viiva,#6d675e)" stroke-width="2.2" stroke-linejoin="round"></polygon><polyline points="239.24,486.75 396.98,562.63" fill="none" stroke="var(--bet-kiilto,#ffffff)" stroke-width="2.31" stroke-linecap="round" stroke-linejoin="round" opacity=".7"></polyline><polygon points="560.53,484.34 399.5,562.44 399.5,133.69 514.52,77.91" fill="var(--bet-sivu-b,#aca396)"></polygon><polygon points="560.53,484.34 399.5,562.44 399.5,133.69 514.52,77.91" fill="url(#tk-ap400-rae)"></polygon><polygon points="560.53,484.34 399.5,562.44 399.5,133.69 514.52,77.91" fill="url(#tk-ap400-valo)"></polygon><polygon points="560.53,484.34 399.5,562.44 399.5,133.69 514.52,77.91" fill="none" stroke="var(--bet-viiva,#6d675e)" stroke-width="3.19" stroke-linejoin="round"></polygon><polygon points="399.5,562.44 238.47,484.34 284.48,77.91 399.5,133.69" fill="var(--bet-sivu-a,#cdc6bb)"></polygon><polygon points="399.5,562.44 238.47,484.34 284.48,77.91 399.5,133.69" fill="url(#tk-ap400-rae)"></polygon><polygon points="399.5,562.44 238.47,484.34 284.48,77.91 399.5,133.69" fill="url(#tk-ap400-valo)"></polygon><polygon points="399.5,562.44 238.47,484.34 284.48,77.91 399.5,133.69" fill="none" stroke="var(--bet-viiva,#6d675e)" stroke-width="2.2" stroke-linejoin="round"></polygon><polyline points="284.96,80.39 398.6,136.06" fill="none" stroke="var(--bet-kiilto,#ffffff)" stroke-width="2.31" stroke-linecap="round" stroke-linejoin="round" opacity=".7"></polyline><polygon points="514.52,77.91 399.5,133.69 399.5,109.26 491.52,64.63" fill="var(--bet-viiste-b,#d5cec2)"></polygon><polygon points="514.52,77.91 399.5,133.69 399.5,109.26 491.52,64.63" fill="url(#tk-ap400-rae)"></polygon><polygon points="514.52,77.91 399.5,133.69 399.5,109.26 491.52,64.63" fill="url(#tk-ap400-valo)"></polygon><polygon points="514.52,77.91 399.5,133.69 399.5,109.26 491.52,64.63" fill="none" stroke="var(--bet-viiva,#6d675e)" stroke-width="3.19" stroke-linejoin="round"></polygon><polygon points="399.5,133.69 284.48,77.91 307.48,64.63 399.5,109.26" fill="var(--bet-viiste-a,#eeeae3)"></polygon><polygon points="399.5,133.69 284.48,77.91 307.48,64.63 399.5,109.26" fill="url(#tk-ap400-rae)"></polygon><polygon points="399.5,133.69 284.48,77.91 307.48,64.63 399.5,109.26" fill="url(#tk-ap400-valo)"></polygon><polygon points="399.5,133.69 284.48,77.91 307.48,64.63 399.5,109.26" fill="none" stroke="var(--bet-viiva,#6d675e)" stroke-width="2.2" stroke-linejoin="round"></polygon><polyline points="309.47,66.19 397.04,108.64" fill="none" stroke="var(--bet-kiilto,#ffffff)" stroke-width="2.31" stroke-linecap="round" stroke-linejoin="round" opacity=".7"></polyline><polygon points="399.5,20 491.52,64.63 399.5,109.26 307.48,64.63" fill="var(--bet-yla,#fdfcfa)"></polygon><polygon points="399.5,20 491.52,64.63 399.5,109.26 307.48,64.63" fill="url(#tk-ap400-rae)"></polygon><polygon points="399.5,20 491.52,64.63 399.5,109.26 307.48,64.63" fill="url(#tk-ap400-valo)"></polygon><polygon points="399.5,20 491.52,64.63 399.5,109.26 307.48,64.63" fill="none" stroke="var(--bet-viiva,#6d675e)" stroke-width="2.2" stroke-linejoin="round"></polygon><polygon points="399.5,22.53 488.99,64.63 399.5,106.73 310.01,64.63" fill="none" stroke="var(--bet-kiilto,#ffffff)" stroke-width="2.31" stroke-linecap="round" stroke-linejoin="round" opacity="1"></polygon><ellipse cx="399.5" cy="64.63" rx="21.96" ry="10.65" fill="var(--bet-syva,#8e8479)"></ellipse><ellipse cx="399.5" cy="64.63" rx="19.52" ry="9.47" fill="var(--bet-teras,#8e8b87)" stroke="var(--bet-viiva,#6d675e)" stroke-width="2.2"></ellipse><ellipse cx="399.5" cy="64.63" rx="16.27" ry="7.89" fill="rgba(37,36,37,.82)" stroke="var(--bet-viiva,#6d675e)" stroke-width="2.2"></ellipse><text transform="matrix(1.15 0.56 -1.08 0.99 246.86 589.93)" x="0" y="0" text-anchor="middle" font-family="Oswald,Raleway,system-ui,sans-serif" font-size="27.06" font-weight="600" letter-spacing=".1em" fill="var(--ink,#252425)" opacity=".26">AP-400</text></svg>
