<svg xmlns="http://www.w3.org/2000/svg" viewBox="0 0 360 736" width="360" height="736" role="img" aria-label="Nostokorva M20, havainnekuva vinosti ylhäältä"><title>Nostokorva M20, havainnekuva vinosti ylhäältä</title><defs><linearGradient id="tv-nostokorva-m20-cel" gradientUnits="userSpaceOnUse" x1="0" y1="0" x2="736" y2="736"><stop offset="0" stop-color="#ffffff" stop-opacity=".16"></stop><stop offset=".52" stop-color="#ffffff" stop-opacity=".16"></stop><stop offset=".52" stop-color="#1d2226" stop-opacity=".07"></stop><stop offset="1" stop-color="#1d2226" stop-opacity=".13"></stop></linearGradient><linearGradient id="tv-nostokorva-m20-kiilto" gradientUnits="userSpaceOnUse" x1="0" y1="0" x2="736" y2="736"><stop offset=".18" stop-color="#ffffff" stop-opacity="0"></stop><stop offset=".22" stop-color="#ffffff" stop-opacity=".58"></stop><stop offset=".26" stop-color="#ffffff" stop-opacity="0"></stop><stop offset=".62" stop-color="#ffffff" stop-opacity="0"></stop><stop offset=".655" stop-color="#ffffff" stop-opacity=".34"></stop><stop offset=".69" stop-color="#ffffff" stop-opacity="0"></stop></linearGradient><filter id="tv-nostokorva-m20-sumu" x="-40%" y="-40%" width="180%" height="180%"><feGaussianBlur stdDeviation="6"></feGaussianBlur></filter></defs><circle r="1" transform="matrix(40.52 19.65 -40.52 19.65 180.09 639.39)" fill="var(--met-tumma,#555c62)" stroke="var(--met-viiva,#6b7278)" stroke-width="1.2" vector-effect="non-scaling-stroke"></circle><polygon points="122.78,639.39 237.39,639.39 237.39,461.58 122.78,461.58" fill="var(--met-sivu,#c3c9ce)"></polygon><polygon points="122.78,639.39 237.39,639.39 237.39,461.58 122.78,461.58" fill="url(#tv-nostokorva-m20-cel)"></polygon><polygon points="122.78,639.39 237.39,639.39 237.39,461.58 122.78,461.58" fill="url(#tv-nostokorva-m20-kiilto)"></polygon><line x1="122.78" y1="639.39" x2="122.78" y2="461.58" stroke="var(--met-viiva,#6b7278)" stroke-width="1.2"></line><line x1="237.39" y1="639.39" x2="237.39" y2="461.58" stroke="var(--met-viiva,#6b7278)" stroke-width="1.2"></line><clipPath id="tv-nostokorva-m20-k-38"><rect x="122.78" y="461.58" width="114.61" height="177.81"></rect></clipPath><g clip-path="url(#tv-nostokorva-m20-k-38)" stroke="var(--met-viiva,#6b7278)" stroke-width="0.96" opacity=".75"><line x1="122.78" y1="461.58" x2="237.39" y2="436.57"></line><line x1="122.78" y1="491.22" x2="237.39" y2="466.2"></line><line x1="122.78" y1="520.85" x2="237.39" y2="495.84"></line><line x1="122.78" y1="550.49" x2="237.39" y2="525.47"></line><line x1="122.78" y1="580.12" x2="237.39" y2="555.11"></line><line x1="122.78" y1="609.76" x2="237.39" y2="584.74"></line><line x1="122.78" y1="639.39" x2="237.39" y2="614.38"></line></g><circle r="1" transform="matrix(40.52 19.65 -40.52 19.65 180.09 461.58)" fill="var(--met-yla,#dfe3e6)" stroke="var(--met-viiva,#6b7278)" stroke-width="1.2" vector-effect="non-scaling-stroke"></circle><circle r="1" transform="matrix(68.89 33.41 -68.89 33.41 180.09 461.58)" fill="var(--met-tumma,#555c62)" stroke="var(--met-viiva,#6b7278)" stroke-width="1.2" vector-effect="non-scaling-stroke"></circle><polygon points="82.67,461.58 277.51,461.58 277.51,405.43 82.67,405.43" fill="var(--met-sivu,#c3c9ce)"></polygon><polygon points="82.67,461.58 277.51,461.58 277.51,405.43 82.67,405.43" fill="url(#tv-nostokorva-m20-cel)"></polygon><polygon points="82.67,461.58 277.51,461.58 277.51,405.43 82.67,405.43" fill="url(#tv-nostokorva-m20-kiilto)"></polygon><line x1="82.67" y1="461.58" x2="82.67" y2="405.43" stroke="var(--met-viiva,#6b7278)" stroke-width="1.2"></line><line x1="277.51" y1="461.58" x2="277.51" y2="405.43" stroke="var(--met-viiva,#6b7278)" stroke-width="1.2"></line><circle r="1" transform="matrix(68.89 33.41 -68.89 33.41 180.09 405.43)" fill="var(--met-yla,#dfe3e6)" stroke="var(--met-viiva,#6b7278)" stroke-width="1.2" vector-effect="non-scaling-stroke"></circle><circle r="1" transform="matrix(-101.3 49.13 0 -116.98 180.09 255.7)" fill="none" stroke="var(--met-viiva,#6b7278)" stroke-width="0.58"></circle><circle r="1" transform="matrix(-101.3 49.13 0 -116.98 180.09 255.7)" fill="none" stroke="var(--met-sivu,#c3c9ce)" stroke-width="0.56"></circle><circle r="1" transform="matrix(-101.3 49.13 0 -116.98 180.09 255.7)" fill="none" stroke="var(--met-yla,#dfe3e6)" stroke-width="0.17" stroke-dasharray="0.5 1.9" opacity=".85"></circle></svg>
