<svg xmlns="http://www.w3.org/2000/svg" viewBox="0 0 498 736" width="498" height="736" role="img" aria-label="Palkkikenkä PAK-100×150, havainnekuva vinosti ylhäältä"><title>Palkkikenkä PAK-100×150, havainnekuva vinosti ylhäältä</title><defs><linearGradient id="tv-pak-100x150-cel" gradientUnits="userSpaceOnUse" x1="0" y1="0" x2="736" y2="736"><stop offset="0" stop-color="#ffffff" stop-opacity=".16"></stop><stop offset=".52" stop-color="#ffffff" stop-opacity=".16"></stop><stop offset=".52" stop-color="#1d2226" stop-opacity=".07"></stop><stop offset="1" stop-color="#1d2226" stop-opacity=".13"></stop></linearGradient><linearGradient id="tv-pak-100x150-kiilto" gradientUnits="userSpaceOnUse" x1="0" y1="0" x2="736" y2="736"><stop offset=".18" stop-color="#ffffff" stop-opacity="0"></stop><stop offset=".22" stop-color="#ffffff" stop-opacity=".58"></stop><stop offset=".26" stop-color="#ffffff" stop-opacity="0"></stop><stop offset=".62" stop-color="#ffffff" stop-opacity="0"></stop><stop offset=".655" stop-color="#ffffff" stop-opacity=".34"></stop><stop offset=".69" stop-color="#ffffff" stop-opacity="0"></stop></linearGradient><filter id="tv-pak-100x150-sumu" x="-40%" y="-40%" width="180%" height="180%"><feGaussianBlur stdDeviation="6"></feGaussianBlur></filter></defs><circle r="1" transform="matrix(18.48 8.96 -18.48 8.96 249.02 597.42)" fill="var(--met-tumma,#555c62)" stroke="var(--met-viiva,#6b7278)" stroke-width="1.66" vector-effect="non-scaling-stroke"></circle><polygon points="222.88,597.42 275.16,597.42 275.16,490.71 222.88,490.71" fill="var(--met-sivu,#c3c9ce)"></polygon><polygon points="222.88,597.42 275.16,597.42 275.16,490.71 222.88,490.71" fill="url(#tv-pak-100x150-cel)"></polygon><polygon points="222.88,597.42 275.16,597.42 275.16,490.71 222.88,490.71" fill="url(#tv-pak-100x150-kiilto)"></polygon><line x1="222.88" y1="597.42" x2="222.88" y2="490.71" stroke="var(--met-viiva,#6b7278)" stroke-width="1.66"></line><line x1="275.16" y1="597.42" x2="275.16" y2="490.71" stroke="var(--met-viiva,#6b7278)" stroke-width="1.66"></line><clipPath id="tv-pak-100x150-k1"><rect x="222.88" y="490.71" width="52.27" height="106.71"></rect></clipPath><g clip-path="url(#tv-pak-100x150-k1)" stroke="var(--met-viiva,#6b7278)" stroke-width="1.33" opacity=".75"><line x1="222.88" y1="490.71" x2="275.16" y2="479.3"></line><line x1="222.88" y1="504.05" x2="275.16" y2="492.64"></line><line x1="222.88" y1="517.39" x2="275.16" y2="505.98"></line><line x1="222.88" y1="530.73" x2="275.16" y2="519.32"></line><line x1="222.88" y1="544.07" x2="275.16" y2="532.66"></line><line x1="222.88" y1="557.41" x2="275.16" y2="546"></line><line x1="222.88" y1="570.74" x2="275.16" y2="559.34"></line><line x1="222.88" y1="584.08" x2="275.16" y2="572.67"></line><line x1="222.88" y1="597.42" x2="275.16" y2="586.01"></line></g><circle r="1" transform="matrix(18.48 8.96 -18.48 8.96 249.02 490.71)" fill="var(--met-yla,#dfe3e6)" stroke="var(--met-viiva,#6b7278)" stroke-width="1.66" vector-effect="non-scaling-stroke"></circle><polygon points="260.74,511.92 217.01,506.24 217.01,472.09 260.74,477.77" fill="var(--met-yla,#dfe3e6)"></polygon><polygon points="260.74,511.92 217.01,506.24 217.01,472.09 260.74,477.77" fill="url(#tv-pak-100x150-cel)"></polygon><polygon points="260.74,511.92 217.01,506.24 217.01,472.09 260.74,477.77" fill="url(#tv-pak-100x150-kiilto)"></polygon><polygon points="260.74,511.92 217.01,506.24 217.01,472.09 260.74,477.77" fill="none" stroke="var(--met-viiva,#6b7278)" stroke-width="1.66" stroke-linejoin="round"></polygon><polygon points="217.01,506.24 205.29,485.03 205.29,450.88 217.01,472.09" fill="var(--met-yla,#dfe3e6)"></polygon><polygon points="217.01,506.24 205.29,485.03 205.29,450.88 217.01,472.09" fill="url(#tv-pak-100x150-cel)"></polygon><polygon points="217.01,506.24 205.29,485.03 205.29,450.88 217.01,472.09" fill="url(#tv-pak-100x150-kiilto)"></polygon><polygon points="217.01,506.24 205.29,485.03 205.29,450.88 217.01,472.09" fill="none" stroke="var(--met-viiva,#6b7278)" stroke-width="1.66" stroke-linejoin="round"></polygon><polygon points="292.75,496.4 260.74,511.92 260.74,477.77 292.75,462.25" fill="var(--met-yla,#dfe3e6)"></polygon><polygon points="292.75,496.4 260.74,511.92 260.74,477.77 292.75,462.25" fill="url(#tv-pak-100x150-cel)"></polygon><polygon points="292.75,496.4 260.74,511.92 260.74,477.77 292.75,462.25" fill="url(#tv-pak-100x150-kiilto)"></polygon><polygon points="292.75,496.4 260.74,511.92 260.74,477.77 292.75,462.25" fill="none" stroke="var(--met-viiva,#6b7278)" stroke-width="1.66" stroke-linejoin="round"></polygon><polygon points="260.74,477.77 217.01,472.09 205.29,450.88 237.3,435.36 281.03,441.04 292.75,462.25" fill="var(--met-yla,#dfe3e6)"></polygon><polygon points="260.74,477.77 217.01,472.09 205.29,450.88 237.3,435.36 281.03,441.04 292.75,462.25" fill="url(#tv-pak-100x150-cel)"></polygon><polygon points="260.74,477.77 217.01,472.09 205.29,450.88 237.3,435.36 281.03,441.04 292.75,462.25" fill="url(#tv-pak-100x150-kiilto)"></polygon><polygon points="260.74,477.77 217.01,472.09 205.29,450.88 237.3,435.36 281.03,441.04 292.75,462.25" fill="none" stroke="var(--met-viiva,#6b7278)" stroke-width="1.66" stroke-linejoin="round"></polygon><polygon points="457.86,450.29 236.08,557.85 236.08,551.45 457.86,443.89" fill="var(--met-varjo,#9aa2a9)"></polygon><polygon points="457.86,450.29 236.08,557.85 236.08,551.45 457.86,443.89" fill="url(#tv-pak-100x150-cel)"></polygon><polygon points="457.86,450.29 236.08,557.85 236.08,551.45 457.86,443.89" fill="url(#tv-pak-100x150-kiilto)"></polygon><polygon points="457.86,450.29 236.08,557.85 236.08,551.45 457.86,443.89" fill="none" stroke="var(--met-viiva,#6b7278)" stroke-width="1.66" stroke-linejoin="round"></polygon><polygon points="236.08,557.85 40.18,462.84 40.18,456.44 236.08,551.45" fill="var(--met-sivu,#c3c9ce)"></polygon><polygon points="236.08,557.85 40.18,462.84 40.18,456.44 236.08,551.45" fill="url(#tv-pak-100x150-cel)"></polygon><polygon points="236.08,557.85 40.18,462.84 40.18,456.44 236.08,551.45" fill="url(#tv-pak-100x150-kiilto)"></polygon><polygon points="236.08,557.85 40.18,462.84 40.18,456.44 236.08,551.45" fill="none" stroke="var(--met-viiva,#6b7278)" stroke-width="1.66" stroke-linejoin="round"></polygon><polygon points="261.96,348.88 457.86,443.89 236.08,551.45 40.18,456.44" fill="var(--met-yla,#dfe3e6)"></polygon><polygon points="261.96,348.88 457.86,443.89 236.08,551.45 40.18,456.44" fill="url(#tv-pak-100x150-cel)"></polygon><polygon points="261.96,348.88 457.86,443.89 236.08,551.45 40.18,456.44" fill="url(#tv-pak-100x150-kiilto)"></polygon><polygon points="261.96,348.88 457.86,443.89 236.08,551.45 40.18,456.44" fill="none" stroke="var(--met-viiva,#6b7278)" stroke-width="1.66" stroke-linejoin="round"></polygon><polygon points="40.18,462.84 40.18,176.87 45.72,179.55 45.72,465.53" fill="var(--met-sivu,#c3c9ce)"></polygon><polygon points="40.18,462.84 40.18,176.87 45.72,179.55 45.72,465.53" fill="url(#tv-pak-100x150-cel)"></polygon><polygon points="40.18,462.84 40.18,176.87 45.72,179.55 45.72,465.53" fill="url(#tv-pak-100x150-kiilto)"></polygon><polygon points="40.18,462.84 40.18,176.87 45.72,179.55 45.72,465.53" fill="none" stroke="var(--met-viiva,#6b7278)" stroke-width="1.66" stroke-linejoin="round"></polygon><polygon points="40.18,176.87 69.75,128.38 75.29,131.07 45.72,179.55" fill="var(--met-yla,#dfe3e6)"></polygon><polygon points="40.18,176.87 69.75,128.38 75.29,131.07 45.72,179.55" fill="url(#tv-pak-100x150-cel)"></polygon><polygon points="40.18,176.87 69.75,128.38 75.29,131.07 45.72,179.55" fill="url(#tv-pak-100x150-kiilto)"></polygon><polygon points="40.18,176.87 69.75,128.38 75.29,131.07 45.72,179.55" fill="none" stroke="var(--met-viiva,#6b7278)" stroke-width="1.66" stroke-linejoin="round"></polygon><polygon points="69.75,128.38 232.39,49.5 237.93,52.19 75.29,131.07" fill="var(--met-yla,#dfe3e6)"></polygon><polygon points="69.75,128.38 232.39,49.5 237.93,52.19 75.29,131.07" fill="url(#tv-pak-100x150-cel)"></polygon><polygon points="69.75,128.38 232.39,49.5 237.93,52.19 75.29,131.07" fill="url(#tv-pak-100x150-kiilto)"></polygon><polygon points="69.75,128.38 232.39,49.5 237.93,52.19 75.29,131.07" fill="none" stroke="var(--met-viiva,#6b7278)" stroke-width="1.66" stroke-linejoin="round"></polygon><polygon points="267.5,357.97 45.72,465.53 45.72,179.55 75.29,131.07 237.93,52.19 267.5,71.99" fill="var(--met-varjo,#9aa2a9)"></polygon><polygon points="267.5,357.97 45.72,465.53 45.72,179.55 75.29,131.07 237.93,52.19 267.5,71.99" fill="url(#tv-pak-100x150-cel)"></polygon><polygon points="267.5,357.97 45.72,465.53 45.72,179.55 75.29,131.07 237.93,52.19 267.5,71.99" fill="url(#tv-pak-100x150-kiilto)"></polygon><polygon points="267.5,357.97 45.72,465.53 45.72,179.55 75.29,131.07 237.93,52.19 267.5,71.99" fill="none" stroke="var(--met-viiva,#6b7278)" stroke-width="1.66" stroke-linejoin="round"></polygon><circle r="1" transform="matrix(-11.09 5.38 0 -12.8 237.93 99.14)" fill="var(--met-syva,#6e767d)" stroke="var(--met-viiva,#6b7278)" stroke-width="1.66" vector-effect="non-scaling-stroke"></circle><circle r="1" transform="matrix(-8.21 3.98 0 -9.48 237.93 99.14)" fill="var(--met-tumma,#555c62)"></circle><circle r="1" transform="matrix(-6.47 3.14 0 -7.47 178.79 127.82)" fill="var(--met-syva,#6e767d)" stroke="var(--met-viiva,#6b7278)" stroke-width="1.66" vector-effect="non-scaling-stroke"></circle><circle r="1" transform="matrix(-4.79 2.32 0 -5.53 178.79 127.82)" fill="var(--met-tumma,#555c62)"></circle><circle r="1" transform="matrix(-11.09 5.38 0 -12.8 75.29 178.02)" fill="var(--met-syva,#6e767d)" stroke="var(--met-viiva,#6b7278)" stroke-width="1.66" vector-effect="non-scaling-stroke"></circle><circle r="1" transform="matrix(-8.21 3.98 0 -9.48 75.29 178.02)" fill="var(--met-tumma,#555c62)"></circle><circle r="1" transform="matrix(-6.47 3.14 0 -7.47 134.43 149.34)" fill="var(--met-syva,#6e767d)" stroke="var(--met-viiva,#6b7278)" stroke-width="1.66" vector-effect="non-scaling-stroke"></circle><circle r="1" transform="matrix(-4.79 2.32 0 -5.53 134.43 149.34)" fill="var(--met-tumma,#555c62)"></circle><circle r="1" transform="matrix(-6.47 3.14 0 -7.47 216.49 327.22)" fill="var(--met-syva,#6e767d)" stroke="var(--met-viiva,#6b7278)" stroke-width="1.66" vector-effect="non-scaling-stroke"></circle><circle r="1" transform="matrix(-4.79 2.32 0 -5.53 216.49 327.22)" fill="var(--met-tumma,#555c62)"></circle><circle r="1" transform="matrix(-6.47 3.14 0 -7.47 176.57 346.58)" fill="var(--met-syva,#6e767d)" stroke="var(--met-viiva,#6b7278)" stroke-width="1.66" vector-effect="non-scaling-stroke"></circle><circle r="1" transform="matrix(-4.79 2.32 0 -5.53 176.57 346.58)" fill="var(--met-tumma,#555c62)"></circle><circle r="1" transform="matrix(-6.47 3.14 0 -7.47 136.65 365.94)" fill="var(--met-syva,#6e767d)" stroke="var(--met-viiva,#6b7278)" stroke-width="1.66" vector-effect="non-scaling-stroke"></circle><circle r="1" transform="matrix(-4.79 2.32 0 -5.53 136.65 365.94)" fill="var(--met-tumma,#555c62)"></circle><circle r="1" transform="matrix(-6.47 3.14 0 -7.47 96.73 385.3)" fill="var(--met-syva,#6e767d)" stroke="var(--met-viiva,#6b7278)" stroke-width="1.66" vector-effect="non-scaling-stroke"></circle><circle r="1" transform="matrix(-4.79 2.32 0 -5.53 96.73 385.3)" fill="var(--met-tumma,#555c62)"></circle><polygon points="230.54,555.16 230.54,269.19 236.08,271.88 236.08,557.85" fill="var(--met-sivu,#c3c9ce)"></polygon><polygon points="230.54,555.16 230.54,269.19 236.08,271.88 236.08,557.85" fill="url(#tv-pak-100x150-cel)"></polygon><polygon points="230.54,555.16 230.54,269.19 236.08,271.88 236.08,557.85" fill="url(#tv-pak-100x150-kiilto)"></polygon><polygon points="230.54,555.16 230.54,269.19 236.08,271.88 236.08,557.85" fill="none" stroke="var(--met-viiva,#6b7278)" stroke-width="1.66" stroke-linejoin="round"></polygon><polygon points="230.54,269.19 260.11,220.7 265.65,223.39 236.08,271.88" fill="var(--met-yla,#dfe3e6)"></polygon><polygon points="230.54,269.19 260.11,220.7 265.65,223.39 236.08,271.88" fill="url(#tv-pak-100x150-cel)"></polygon><polygon points="230.54,269.19 260.11,220.7 265.65,223.39 236.08,271.88" fill="url(#tv-pak-100x150-kiilto)"></polygon><polygon points="230.54,269.19 260.11,220.7 265.65,223.39 236.08,271.88" fill="none" stroke="var(--met-viiva,#6b7278)" stroke-width="1.66" stroke-linejoin="round"></polygon><polygon points="260.11,220.7 422.75,141.82 428.29,144.51 265.65,223.39" fill="var(--met-yla,#dfe3e6)"></polygon><polygon points="260.11,220.7 422.75,141.82 428.29,144.51 265.65,223.39" fill="url(#tv-pak-100x150-cel)"></polygon><polygon points="260.11,220.7 422.75,141.82 428.29,144.51 265.65,223.39" fill="url(#tv-pak-100x150-kiilto)"></polygon><polygon points="260.11,220.7 422.75,141.82 428.29,144.51 265.65,223.39" fill="none" stroke="var(--met-viiva,#6b7278)" stroke-width="1.66" stroke-linejoin="round"></polygon><polygon points="457.86,450.29 236.08,557.85 236.08,271.88 265.65,223.39 428.29,144.51 457.86,164.32" fill="var(--met-varjo,#9aa2a9)"></polygon><polygon points="457.86,450.29 236.08,557.85 236.08,271.88 265.65,223.39 428.29,144.51 457.86,164.32" fill="url(#tv-pak-100x150-cel)"></polygon><polygon points="457.86,450.29 236.08,557.85 236.08,271.88 265.65,223.39 428.29,144.51 457.86,164.32" fill="url(#tv-pak-100x150-kiilto)"></polygon><polygon points="457.86,450.29 236.08,557.85 236.08,271.88 265.65,223.39 428.29,144.51 457.86,164.32" fill="none" stroke="var(--met-viiva,#6b7278)" stroke-width="1.66" stroke-linejoin="round"></polygon><circle r="1" transform="matrix(-11.09 5.38 0 -12.8 428.29 191.46)" fill="var(--met-syva,#6e767d)" stroke="var(--met-viiva,#6b7278)" stroke-width="1.66" vector-effect="non-scaling-stroke"></circle><circle r="1" transform="matrix(-8.21 3.98 0 -9.48 428.29 191.46)" fill="var(--met-tumma,#555c62)"></circle><circle r="1" transform="matrix(-6.47 3.14 0 -7.47 369.15 220.15)" fill="var(--met-syva,#6e767d)" stroke="var(--met-viiva,#6b7278)" stroke-width="1.66" vector-effect="non-scaling-stroke"></circle><circle r="1" transform="matrix(-4.79 2.32 0 -5.53 369.15 220.15)" fill="var(--met-tumma,#555c62)"></circle><circle r="1" transform="matrix(-11.09 5.38 0 -12.8 265.65 270.34)" fill="var(--met-syva,#6e767d)" stroke="var(--met-viiva,#6b7278)" stroke-width="1.66" vector-effect="non-scaling-stroke"></circle><circle r="1" transform="matrix(-8.21 3.98 0 -9.48 265.65 270.34)" fill="var(--met-tumma,#555c62)"></circle><circle r="1" transform="matrix(-6.47 3.14 0 -7.47 324.8 241.66)" fill="var(--met-syva,#6e767d)" stroke="var(--met-viiva,#6b7278)" stroke-width="1.66" vector-effect="non-scaling-stroke"></circle><circle r="1" transform="matrix(-4.79 2.32 0 -5.53 324.8 241.66)" fill="var(--met-tumma,#555c62)"></circle><circle r="1" transform="matrix(-6.47 3.14 0 -7.47 406.86 419.54)" fill="var(--met-syva,#6e767d)" stroke="var(--met-viiva,#6b7278)" stroke-width="1.66" vector-effect="non-scaling-stroke"></circle><circle r="1" transform="matrix(-4.79 2.32 0 -5.53 406.86 419.54)" fill="var(--met-tumma,#555c62)"></circle><circle r="1" transform="matrix(-6.47 3.14 0 -7.47 366.93 438.9)" fill="var(--met-syva,#6e767d)" stroke="var(--met-viiva,#6b7278)" stroke-width="1.66" vector-effect="non-scaling-stroke"></circle><circle r="1" transform="matrix(-4.79 2.32 0 -5.53 366.93 438.9)" fill="var(--met-tumma,#555c62)"></circle><circle r="1" transform="matrix(-6.47 3.14 0 -7.47 327.01 458.27)" fill="var(--met-syva,#6e767d)" stroke="var(--met-viiva,#6b7278)" stroke-width="1.66" vector-effect="non-scaling-stroke"></circle><circle r="1" transform="matrix(-4.79 2.32 0 -5.53 327.01 458.27)" fill="var(--met-tumma,#555c62)"></circle><circle r="1" transform="matrix(-6.47 3.14 0 -7.47 287.09 477.63)" fill="var(--met-syva,#6e767d)" stroke="var(--met-viiva,#6b7278)" stroke-width="1.66" vector-effect="non-scaling-stroke"></circle><circle r="1" transform="matrix(-4.79 2.32 0 -5.53 287.09 477.63)" fill="var(--met-tumma,#555c62)"></circle></svg>
