<svg xmlns="http://www.w3.org/2000/svg" viewBox="0 0 570 736" width="570" height="736" role="img" aria-label="Palkkikenkä PAK-100×200, havainnekuva vinosti ylhäältä"><title>Palkkikenkä PAK-100×200, havainnekuva vinosti ylhäältä</title><defs><linearGradient id="tv-pak-100x200-cel" gradientUnits="userSpaceOnUse" x1="0" y1="0" x2="736" y2="736"><stop offset="0" stop-color="#ffffff" stop-opacity=".16"></stop><stop offset=".52" stop-color="#ffffff" stop-opacity=".16"></stop><stop offset=".52" stop-color="#1d2226" stop-opacity=".07"></stop><stop offset="1" stop-color="#1d2226" stop-opacity=".13"></stop></linearGradient><linearGradient id="tv-pak-100x200-kiilto" gradientUnits="userSpaceOnUse" x1="0" y1="0" x2="736" y2="736"><stop offset=".18" stop-color="#ffffff" stop-opacity="0"></stop><stop offset=".22" stop-color="#ffffff" stop-opacity=".58"></stop><stop offset=".26" stop-color="#ffffff" stop-opacity="0"></stop><stop offset=".62" stop-color="#ffffff" stop-opacity="0"></stop><stop offset=".655" stop-color="#ffffff" stop-opacity=".34"></stop><stop offset=".69" stop-color="#ffffff" stop-opacity="0"></stop></linearGradient><filter id="tv-pak-100x200-sumu" x="-40%" y="-40%" width="180%" height="180%"><feGaussianBlur stdDeviation="6"></feGaussianBlur></filter></defs><polygon points="447.46,602.29 313.85,667.09 313.85,660.47 447.46,595.68" fill="var(--met-varjo,#9aa2a9)"></polygon><polygon points="447.46,602.29 313.85,667.09 313.85,660.47 447.46,595.68" fill="url(#tv-pak-100x200-cel)"></polygon><polygon points="447.46,602.29 313.85,667.09 313.85,660.47 447.46,595.68" fill="url(#tv-pak-100x200-kiilto)"></polygon><polygon points="447.46,602.29 313.85,667.09 313.85,660.47 447.46,595.68" fill="none" stroke="var(--met-viiva,#6b7278)" stroke-width="1.9" stroke-linejoin="round"></polygon><polygon points="313.85,667.09 122.98,574.52 122.98,567.91 313.85,660.47" fill="var(--met-sivu,#c3c9ce)"></polygon><polygon points="313.85,667.09 122.98,574.52 122.98,567.91 313.85,660.47" fill="url(#tv-pak-100x200-cel)"></polygon><polygon points="313.85,667.09 122.98,574.52 122.98,567.91 313.85,660.47" fill="url(#tv-pak-100x200-kiilto)"></polygon><polygon points="313.85,667.09 122.98,574.52 122.98,567.91 313.85,660.47" fill="none" stroke="var(--met-viiva,#6b7278)" stroke-width="1.9" stroke-linejoin="round"></polygon><polygon points="256.59,503.11 447.46,595.68 313.85,660.47 122.98,567.91" fill="var(--met-yla,#dfe3e6)"></polygon><polygon points="256.59,503.11 447.46,595.68 313.85,660.47 122.98,567.91" fill="url(#tv-pak-100x200-cel)"></polygon><polygon points="256.59,503.11 447.46,595.68 313.85,660.47 122.98,567.91" fill="url(#tv-pak-100x200-kiilto)"></polygon><polygon points="256.59,503.11 447.46,595.68 313.85,660.47 122.98,567.91" fill="none" stroke="var(--met-viiva,#6b7278)" stroke-width="1.9" stroke-linejoin="round"></polygon><polygon points="117.25,571.74 117.25,130.93 122.98,133.71 122.98,574.52" fill="var(--met-sivu,#c3c9ce)"></polygon><polygon points="117.25,571.74 117.25,130.93 122.98,133.71 122.98,574.52" fill="url(#tv-pak-100x200-cel)"></polygon><polygon points="117.25,571.74 117.25,130.93 122.98,133.71 122.98,574.52" fill="url(#tv-pak-100x200-kiilto)"></polygon><polygon points="117.25,571.74 117.25,130.93 122.98,133.71 122.98,574.52" fill="none" stroke="var(--met-viiva,#6b7278)" stroke-width="1.9" stroke-linejoin="round"></polygon><polygon points="117.25,130.93 250.86,66.14 256.59,68.91 122.98,133.71" fill="var(--met-yla,#dfe3e6)"></polygon><polygon points="117.25,130.93 250.86,66.14 256.59,68.91 122.98,133.71" fill="url(#tv-pak-100x200-cel)"></polygon><polygon points="117.25,130.93 250.86,66.14 256.59,68.91 122.98,133.71" fill="url(#tv-pak-100x200-kiilto)"></polygon><polygon points="117.25,130.93 250.86,66.14 256.59,68.91 122.98,133.71" fill="none" stroke="var(--met-viiva,#6b7278)" stroke-width="1.9" stroke-linejoin="round"></polygon><polygon points="256.59,509.72 122.98,574.52 122.98,133.71 256.59,68.91" fill="var(--met-varjo,#9aa2a9)"></polygon><polygon points="256.59,509.72 122.98,574.52 122.98,133.71 256.59,68.91" fill="url(#tv-pak-100x200-cel)"></polygon><polygon points="256.59,509.72 122.98,574.52 122.98,133.71 256.59,68.91" fill="url(#tv-pak-100x200-kiilto)"></polygon><polygon points="256.59,509.72 122.98,574.52 122.98,133.71 256.59,68.91" fill="none" stroke="var(--met-viiva,#6b7278)" stroke-width="1.9" stroke-linejoin="round"></polygon><circle r="1" transform="matrix(-7.63 3.7 0 -8.82 223.18 473.02)" fill="var(--met-syva,#6e767d)" stroke="var(--met-viiva,#6b7278)" stroke-width="1.9" vector-effect="non-scaling-stroke"></circle><circle r="1" transform="matrix(-5.65 2.74 0 -6.52 223.18 473.02)" fill="var(--met-tumma,#555c62)"></circle><circle r="1" transform="matrix(-7.63 3.7 0 -8.82 156.38 505.42)" fill="var(--met-syva,#6e767d)" stroke="var(--met-viiva,#6b7278)" stroke-width="1.9" vector-effect="non-scaling-stroke"></circle><circle r="1" transform="matrix(-5.65 2.74 0 -6.52 156.38 505.42)" fill="var(--met-tumma,#555c62)"></circle><circle r="1" transform="matrix(-7.63 3.7 0 -8.82 223.18 364.29)" fill="var(--met-syva,#6e767d)" stroke="var(--met-viiva,#6b7278)" stroke-width="1.9" vector-effect="non-scaling-stroke"></circle><circle r="1" transform="matrix(-5.65 2.74 0 -6.52 223.18 364.29)" fill="var(--met-tumma,#555c62)"></circle><circle r="1" transform="matrix(-7.63 3.7 0 -8.82 156.38 396.69)" fill="var(--met-syva,#6e767d)" stroke="var(--met-viiva,#6b7278)" stroke-width="1.9" vector-effect="non-scaling-stroke"></circle><circle r="1" transform="matrix(-5.65 2.74 0 -6.52 156.38 396.69)" fill="var(--met-tumma,#555c62)"></circle><circle r="1" transform="matrix(-7.63 3.7 0 -8.82 223.18 255.56)" fill="var(--met-syva,#6e767d)" stroke="var(--met-viiva,#6b7278)" stroke-width="1.9" vector-effect="non-scaling-stroke"></circle><circle r="1" transform="matrix(-5.65 2.74 0 -6.52 223.18 255.56)" fill="var(--met-tumma,#555c62)"></circle><circle r="1" transform="matrix(-7.63 3.7 0 -8.82 156.38 287.96)" fill="var(--met-syva,#6e767d)" stroke="var(--met-viiva,#6b7278)" stroke-width="1.9" vector-effect="non-scaling-stroke"></circle><circle r="1" transform="matrix(-5.65 2.74 0 -6.52 156.38 287.96)" fill="var(--met-tumma,#555c62)"></circle><circle r="1" transform="matrix(-7.63 3.7 0 -8.82 223.18 146.83)" fill="var(--met-syva,#6e767d)" stroke="var(--met-viiva,#6b7278)" stroke-width="1.9" vector-effect="non-scaling-stroke"></circle><circle r="1" transform="matrix(-5.65 2.74 0 -6.52 223.18 146.83)" fill="var(--met-tumma,#555c62)"></circle><circle r="1" transform="matrix(-7.63 3.7 0 -8.82 156.38 179.22)" fill="var(--met-syva,#6e767d)" stroke="var(--met-viiva,#6b7278)" stroke-width="1.9" vector-effect="non-scaling-stroke"></circle><circle r="1" transform="matrix(-5.65 2.74 0 -6.52 156.38 179.22)" fill="var(--met-tumma,#555c62)"></circle><polygon points="256.59,68.91 122.98,133.71 122.98,127.1 256.59,62.3" fill="var(--met-varjo,#9aa2a9)"></polygon><polygon points="256.59,68.91 122.98,133.71 122.98,127.1 256.59,62.3" fill="url(#tv-pak-100x200-cel)"></polygon><polygon points="256.59,68.91 122.98,133.71 122.98,127.1 256.59,62.3" fill="url(#tv-pak-100x200-kiilto)"></polygon><polygon points="256.59,68.91 122.98,133.71 122.98,127.1 256.59,62.3" fill="none" stroke="var(--met-viiva,#6b7278)" stroke-width="1.9" stroke-linejoin="round"></polygon><polygon points="122.98,133.71 50.45,98.54 50.45,91.92 122.98,127.1" fill="var(--met-sivu,#c3c9ce)"></polygon><polygon points="122.98,133.71 50.45,98.54 50.45,91.92 122.98,127.1" fill="url(#tv-pak-100x200-cel)"></polygon><polygon points="122.98,133.71 50.45,98.54 50.45,91.92 122.98,127.1" fill="url(#tv-pak-100x200-kiilto)"></polygon><polygon points="122.98,133.71 50.45,98.54 50.45,91.92 122.98,127.1" fill="none" stroke="var(--met-viiva,#6b7278)" stroke-width="1.9" stroke-linejoin="round"></polygon><polygon points="184.06,27.12 256.59,62.3 122.98,127.1 50.45,91.92" fill="var(--met-yla,#dfe3e6)"></polygon><polygon points="184.06,27.12 256.59,62.3 122.98,127.1 50.45,91.92" fill="url(#tv-pak-100x200-cel)"></polygon><polygon points="184.06,27.12 256.59,62.3 122.98,127.1 50.45,91.92" fill="url(#tv-pak-100x200-kiilto)"></polygon><polygon points="184.06,27.12 256.59,62.3 122.98,127.1 50.45,91.92" fill="none" stroke="var(--met-viiva,#6b7278)" stroke-width="1.9" stroke-linejoin="round"></polygon><circle r="1" transform="matrix(9.54 4.63 -9.54 4.63 148.36 74.61)" fill="var(--met-syva,#6e767d)" stroke="var(--met-viiva,#6b7278)" stroke-width="1.9" vector-effect="non-scaling-stroke"></circle><circle r="1" transform="matrix(7.06 3.43 -7.06 3.43 148.36 74.61)" fill="var(--met-tumma,#555c62)"></circle><polygon points="313.85,667.09 313.85,226.28 319.57,229.06 319.57,669.86" fill="var(--met-sivu,#c3c9ce)"></polygon><polygon points="313.85,667.09 313.85,226.28 319.57,229.06 319.57,669.86" fill="url(#tv-pak-100x200-cel)"></polygon><polygon points="313.85,667.09 313.85,226.28 319.57,229.06 319.57,669.86" fill="url(#tv-pak-100x200-kiilto)"></polygon><polygon points="313.85,667.09 313.85,226.28 319.57,229.06 319.57,669.86" fill="none" stroke="var(--met-viiva,#6b7278)" stroke-width="1.9" stroke-linejoin="round"></polygon><polygon points="313.85,226.28 447.46,161.48 453.18,164.26 319.57,229.06" fill="var(--met-yla,#dfe3e6)"></polygon><polygon points="313.85,226.28 447.46,161.48 453.18,164.26 319.57,229.06" fill="url(#tv-pak-100x200-cel)"></polygon><polygon points="313.85,226.28 447.46,161.48 453.18,164.26 319.57,229.06" fill="url(#tv-pak-100x200-kiilto)"></polygon><polygon points="313.85,226.28 447.46,161.48 453.18,164.26 319.57,229.06" fill="none" stroke="var(--met-viiva,#6b7278)" stroke-width="1.9" stroke-linejoin="round"></polygon><polygon points="453.18,605.07 319.57,669.86 319.57,229.06 453.18,164.26" fill="var(--met-varjo,#9aa2a9)"></polygon><polygon points="453.18,605.07 319.57,669.86 319.57,229.06 453.18,164.26" fill="url(#tv-pak-100x200-cel)"></polygon><polygon points="453.18,605.07 319.57,669.86 319.57,229.06 453.18,164.26" fill="url(#tv-pak-100x200-kiilto)"></polygon><polygon points="453.18,605.07 319.57,669.86 319.57,229.06 453.18,164.26" fill="none" stroke="var(--met-viiva,#6b7278)" stroke-width="1.9" stroke-linejoin="round"></polygon><circle r="1" transform="matrix(-7.63 3.7 0 -8.82 419.78 568.37)" fill="var(--met-syva,#6e767d)" stroke="var(--met-viiva,#6b7278)" stroke-width="1.9" vector-effect="non-scaling-stroke"></circle><circle r="1" transform="matrix(-5.65 2.74 0 -6.52 419.78 568.37)" fill="var(--met-tumma,#555c62)"></circle><circle r="1" transform="matrix(-7.63 3.7 0 -8.82 352.98 600.77)" fill="var(--met-syva,#6e767d)" stroke="var(--met-viiva,#6b7278)" stroke-width="1.9" vector-effect="non-scaling-stroke"></circle><circle r="1" transform="matrix(-5.65 2.74 0 -6.52 352.98 600.77)" fill="var(--met-tumma,#555c62)"></circle><circle r="1" transform="matrix(-7.63 3.7 0 -8.82 419.78 459.64)" fill="var(--met-syva,#6e767d)" stroke="var(--met-viiva,#6b7278)" stroke-width="1.9" vector-effect="non-scaling-stroke"></circle><circle r="1" transform="matrix(-5.65 2.74 0 -6.52 419.78 459.64)" fill="var(--met-tumma,#555c62)"></circle><circle r="1" transform="matrix(-7.63 3.7 0 -8.82 352.98 492.04)" fill="var(--met-syva,#6e767d)" stroke="var(--met-viiva,#6b7278)" stroke-width="1.9" vector-effect="non-scaling-stroke"></circle><circle r="1" transform="matrix(-5.65 2.74 0 -6.52 352.98 492.04)" fill="var(--met-tumma,#555c62)"></circle><circle r="1" transform="matrix(-7.63 3.7 0 -8.82 419.78 350.9)" fill="var(--met-syva,#6e767d)" stroke="var(--met-viiva,#6b7278)" stroke-width="1.9" vector-effect="non-scaling-stroke"></circle><circle r="1" transform="matrix(-5.65 2.74 0 -6.52 419.78 350.9)" fill="var(--met-tumma,#555c62)"></circle><circle r="1" transform="matrix(-7.63 3.7 0 -8.82 352.98 383.3)" fill="var(--met-syva,#6e767d)" stroke="var(--met-viiva,#6b7278)" stroke-width="1.9" vector-effect="non-scaling-stroke"></circle><circle r="1" transform="matrix(-5.65 2.74 0 -6.52 352.98 383.3)" fill="var(--met-tumma,#555c62)"></circle><circle r="1" transform="matrix(-7.63 3.7 0 -8.82 419.78 242.17)" fill="var(--met-syva,#6e767d)" stroke="var(--met-viiva,#6b7278)" stroke-width="1.9" vector-effect="non-scaling-stroke"></circle><circle r="1" transform="matrix(-5.65 2.74 0 -6.52 419.78 242.17)" fill="var(--met-tumma,#555c62)"></circle><circle r="1" transform="matrix(-7.63 3.7 0 -8.82 352.98 274.57)" fill="var(--met-syva,#6e767d)" stroke="var(--met-viiva,#6b7278)" stroke-width="1.9" vector-effect="non-scaling-stroke"></circle><circle r="1" transform="matrix(-5.65 2.74 0 -6.52 352.98 274.57)" fill="var(--met-tumma,#555c62)"></circle><polygon points="519.99,196.66 386.38,261.46 386.38,254.85 519.99,190.05" fill="var(--met-varjo,#9aa2a9)"></polygon><polygon points="519.99,196.66 386.38,261.46 386.38,254.85 519.99,190.05" fill="url(#tv-pak-100x200-cel)"></polygon><polygon points="519.99,196.66 386.38,261.46 386.38,254.85 519.99,190.05" fill="url(#tv-pak-100x200-kiilto)"></polygon><polygon points="519.99,196.66 386.38,261.46 386.38,254.85 519.99,190.05" fill="none" stroke="var(--met-viiva,#6b7278)" stroke-width="1.9" stroke-linejoin="round"></polygon><polygon points="386.38,261.46 313.85,226.28 313.85,219.67 386.38,254.85" fill="var(--met-sivu,#c3c9ce)"></polygon><polygon points="386.38,261.46 313.85,226.28 313.85,219.67 386.38,254.85" fill="url(#tv-pak-100x200-cel)"></polygon><polygon points="386.38,261.46 313.85,226.28 313.85,219.67 386.38,254.85" fill="url(#tv-pak-100x200-kiilto)"></polygon><polygon points="386.38,261.46 313.85,226.28 313.85,219.67 386.38,254.85" fill="none" stroke="var(--met-viiva,#6b7278)" stroke-width="1.9" stroke-linejoin="round"></polygon><polygon points="447.46,154.87 519.99,190.05 386.38,254.85 313.85,219.67" fill="var(--met-yla,#dfe3e6)"></polygon><polygon points="447.46,154.87 519.99,190.05 386.38,254.85 313.85,219.67" fill="url(#tv-pak-100x200-cel)"></polygon><polygon points="447.46,154.87 519.99,190.05 386.38,254.85 313.85,219.67" fill="url(#tv-pak-100x200-kiilto)"></polygon><polygon points="447.46,154.87 519.99,190.05 386.38,254.85 313.85,219.67" fill="none" stroke="var(--met-viiva,#6b7278)" stroke-width="1.9" stroke-linejoin="round"></polygon><circle r="1" transform="matrix(9.54 4.63 -9.54 4.63 422.07 207.36)" fill="var(--met-syva,#6e767d)" stroke="var(--met-viiva,#6b7278)" stroke-width="1.9" vector-effect="non-scaling-stroke"></circle><circle r="1" transform="matrix(7.06 3.43 -7.06 3.43 422.07 207.36)" fill="var(--met-tumma,#555c62)"></circle></svg>
