<svg xmlns="http://www.w3.org/2000/svg" viewBox="14 14 110 82" width="110" height="82" aria-hidden="true" focusable="false"><defs><linearGradient id="yh-lk-tasainen-t-cel" gradientUnits="userSpaceOnUse" x1="0" y1="0" x2="125" y2="125"><stop offset="0" stop-color="#ffffff" stop-opacity=".16"></stop><stop offset=".52" stop-color="#ffffff" stop-opacity=".16"></stop><stop offset=".52" stop-color="#1d2226" stop-opacity=".07"></stop><stop offset="1" stop-color="#1d2226" stop-opacity=".13"></stop></linearGradient><linearGradient id="yh-lk-tasainen-t-kiilto" gradientUnits="userSpaceOnUse" x1="0" y1="0" x2="125" y2="125"><stop offset=".18" stop-color="#ffffff" stop-opacity="0"></stop><stop offset=".22" stop-color="#ffffff" stop-opacity=".58"></stop><stop offset=".26" stop-color="#ffffff" stop-opacity="0"></stop><stop offset=".62" stop-color="#ffffff" stop-opacity="0"></stop><stop offset=".655" stop-color="#ffffff" stop-opacity=".34"></stop><stop offset=".69" stop-color="#ffffff" stop-opacity="0"></stop></linearGradient><filter id="yh-lk-tasainen-t-sumu" x="-40%" y="-40%" width="180%" height="180%"><feGaussianBlur stdDeviation="6"></feGaussianBlur></filter></defs><defs><linearGradient id="yh-lk-tasainen-p-valo" gradientUnits="userSpaceOnUse" x1="0" y1="0" x2="0" y2="125"><stop offset="0" stop-color="#ffffff" stop-opacity=".30"></stop><stop offset=".5" stop-color="#ffffff" stop-opacity="0"></stop><stop offset="1" stop-color="#252425" stop-opacity=".10"></stop></linearGradient><filter id="yh-lk-tasainen-p-sumu" x="-30%" y="-30%" width="160%" height="160%"><feGaussianBlur stdDeviation="7"></feGaussianBlur></filter></defs><circle r="1" transform="matrix(2.25 1.09 -2.25 1.09 68.44 89.52)" fill="var(--met-tumma,#555c62)" stroke="var(--met-viiva,#6b7278)" stroke-width="0.9" vector-effect="non-scaling-stroke"></circle><polygon points="65.25,89.52 71.62,89.52 71.62,76.52 65.25,76.52" fill="var(--met-sivu,#c3c9ce)"></polygon><polygon points="65.25,89.52 71.62,89.52 71.62,76.52 65.25,76.52" fill="url(#yh-lk-tasainen-t-cel)"></polygon><polygon points="65.25,89.52 71.62,89.52 71.62,76.52 65.25,76.52" fill="url(#yh-lk-tasainen-t-kiilto)"></polygon><line x1="65.25" y1="89.52" x2="65.25" y2="76.52" stroke="var(--met-viiva,#6b7278)" stroke-width="0.9"></line><line x1="71.62" y1="89.52" x2="71.62" y2="76.52" stroke="var(--met-viiva,#6b7278)" stroke-width="0.9"></line><clipPath id="yh-lk-tasainen-t-k-50"><rect x="65.25" y="76.52" width="6.37" height="13"></rect></clipPath><g clip-path="url(#yh-lk-tasainen-t-k-50)" stroke="var(--met-viiva,#6b7278)" stroke-width="0.72" opacity=".75"><line x1="65.25" y1="76.52" x2="71.62" y2="75.13"></line><line x1="65.25" y1="78.15" x2="71.62" y2="76.76"></line><line x1="65.25" y1="79.77" x2="71.62" y2="78.38"></line><line x1="65.25" y1="81.4" x2="71.62" y2="80.01"></line><line x1="65.25" y1="83.02" x2="71.62" y2="81.63"></line><line x1="65.25" y1="84.65" x2="71.62" y2="83.26"></line><line x1="65.25" y1="86.27" x2="71.62" y2="84.88"></line><line x1="65.25" y1="87.9" x2="71.62" y2="86.51"></line><line x1="65.25" y1="89.52" x2="71.62" y2="88.13"></line></g><circle r="1" transform="matrix(2.25 1.09 -2.25 1.09 68.44 76.52)" fill="var(--met-yla,#dfe3e6)" stroke="var(--met-viiva,#6b7278)" stroke-width="0.9" vector-effect="non-scaling-stroke"></circle><polygon points="99.73,77.72 70.91,91.7 70.91,89.62 99.73,75.64" fill="var(--met-varjo,#9aa2a9)"></polygon><polygon points="99.73,77.72 70.91,91.7 70.91,89.62 99.73,75.64" fill="url(#yh-lk-tasainen-t-cel)"></polygon><polygon points="99.73,77.72 70.91,91.7 70.91,89.62 99.73,75.64" fill="url(#yh-lk-tasainen-t-kiilto)"></polygon><polygon points="99.73,77.72 70.91,91.7 70.91,89.62 99.73,75.64" fill="none" stroke="var(--met-viiva,#6b7278)" stroke-width="0.9" stroke-linejoin="round"></polygon><polygon points="70.91,91.7 65.96,91.7 65.96,89.62 70.91,89.62" fill="var(--met-sivu,#c3c9ce)"></polygon><polygon points="70.91,91.7 65.96,91.7 65.96,89.62 70.91,89.62" fill="url(#yh-lk-tasainen-t-cel)"></polygon><polygon points="70.91,91.7 65.96,91.7 65.96,89.62 70.91,89.62" fill="url(#yh-lk-tasainen-t-kiilto)"></polygon><polygon points="70.91,91.7 65.96,91.7 65.96,89.62 70.91,89.62" fill="none" stroke="var(--met-viiva,#6b7278)" stroke-width="0.9" stroke-linejoin="round"></polygon><polygon points="65.96,91.7 37.14,77.72 37.14,75.64 65.96,89.62" fill="var(--met-sivu,#c3c9ce)"></polygon><polygon points="65.96,91.7 37.14,77.72 37.14,75.64 65.96,89.62" fill="url(#yh-lk-tasainen-t-cel)"></polygon><polygon points="65.96,91.7 37.14,77.72 37.14,75.64 65.96,89.62" fill="url(#yh-lk-tasainen-t-kiilto)"></polygon><polygon points="65.96,91.7 37.14,77.72 37.14,75.64 65.96,89.62" fill="none" stroke="var(--met-viiva,#6b7278)" stroke-width="0.9" stroke-linejoin="round"></polygon><polygon points="70.91,59.26 99.73,73.24 99.73,75.64 70.91,89.62 65.96,89.62 37.14,75.64 37.14,73.24 65.96,59.26" fill="var(--met-yla,#dfe3e6)"></polygon><polygon points="70.91,59.26 99.73,73.24 99.73,75.64 70.91,89.62 65.96,89.62 37.14,75.64 37.14,73.24 65.96,59.26" fill="url(#yh-lk-tasainen-t-cel)"></polygon><polygon points="70.91,59.26 99.73,73.24 99.73,75.64 70.91,89.62 65.96,89.62 37.14,75.64 37.14,73.24 65.96,59.26" fill="url(#yh-lk-tasainen-t-kiilto)"></polygon><polygon points="70.91,59.26 99.73,73.24 99.73,75.64 70.91,89.62 65.96,89.62 37.14,75.64 37.14,73.24 65.96,59.26" fill="none" stroke="var(--met-viiva,#6b7278)" stroke-width="0.9" stroke-linejoin="round"></polygon><circle r="1" transform="matrix(1.01 0.49 -1.01 0.49 68.44 61.77)" fill="var(--met-syva,#6e767d)" stroke="var(--met-viiva,#6b7278)" stroke-width="0.9" vector-effect="non-scaling-stroke"></circle><circle r="1" transform="matrix(0.75 0.36 -0.75 0.36 68.44 61.77)" fill="var(--met-tumma,#555c62)"></circle><circle r="1" transform="matrix(1.01 0.49 -1.01 0.49 94.55 74.44)" fill="var(--met-syva,#6e767d)" stroke="var(--met-viiva,#6b7278)" stroke-width="0.9" vector-effect="non-scaling-stroke"></circle><circle r="1" transform="matrix(0.75 0.36 -0.75 0.36 94.55 74.44)" fill="var(--met-tumma,#555c62)"></circle><circle r="1" transform="matrix(1.01 0.49 -1.01 0.49 68.44 87.11)" fill="var(--met-syva,#6e767d)" stroke="var(--met-viiva,#6b7278)" stroke-width="0.9" vector-effect="non-scaling-stroke"></circle><circle r="1" transform="matrix(0.75 0.36 -0.75 0.36 68.44 87.11)" fill="var(--met-tumma,#555c62)"></circle><circle r="1" transform="matrix(1.01 0.49 -1.01 0.49 42.32 74.44)" fill="var(--met-syva,#6e767d)" stroke="var(--met-viiva,#6b7278)" stroke-width="0.9" vector-effect="non-scaling-stroke"></circle><circle r="1" transform="matrix(0.75 0.36 -0.75 0.36 42.32 74.44)" fill="var(--met-tumma,#555c62)"></circle><circle r="1" transform="matrix(3.04 1.47 -3.04 1.47 68.44 74.44)" fill="var(--met-yla,#dfe3e6)" stroke="var(--met-viiva,#6b7278)" stroke-width="0.9" vector-effect="non-scaling-stroke"></circle><polygon points="50.65,18.33 118.2,51.09 86.22,66.59 18.68,33.83" fill="var(--puu-yla,#e7d7b6)"></polygon><polygon points="50.65,18.33 118.2,51.09 86.22,66.59 18.68,33.83" fill="url(#yh-lk-tasainen-p-valo)"></polygon><polygon points="50.65,18.33 118.2,51.09 86.22,66.59 18.68,33.83" fill="none" stroke="var(--puu-viiva,#5d4a33)" stroke-width="0.9" stroke-opacity=".7" stroke-linejoin="round"></polygon><polygon points="18.68,33.83 86.22,66.59 85.55,67.7 18,34.94" fill="var(--puu-viiste,#eee2c8)"></polygon><polygon points="18.68,33.83 86.22,66.59 85.55,67.7 18,34.94" fill="url(#yh-lk-tasainen-p-valo)"></polygon><polygon points="18.68,33.83 86.22,66.59 85.55,67.7 18,34.94" fill="none" stroke="var(--puu-viiva,#5d4a33)" stroke-width="0.9" stroke-opacity=".7" stroke-linejoin="round"></polygon><polygon points="18,34.94 85.55,67.7 85.55,78.62 18,45.86" fill="var(--puu-sivu-a,#dcc9a4)"></polygon><polygon points="18,34.94 85.55,67.7 85.55,78.62 18,45.86" fill="url(#yh-lk-tasainen-p-valo)"></polygon><polygon points="18,34.94 85.55,67.7 85.55,78.62 18,45.86" fill="none" stroke="var(--puu-viiva,#5d4a33)" stroke-width="0.9" stroke-opacity=".7" stroke-linejoin="round"></polygon><polygon points="18,45.86 85.55,78.62 86.22,79.07 18.68,46.31" fill="var(--puu-sivu-b,#c6b189)"></polygon><polygon points="18,45.86 85.55,78.62 86.22,79.07 18.68,46.31" fill="url(#yh-lk-tasainen-p-valo)"></polygon><polygon points="18,45.86 85.55,78.62 86.22,79.07 18.68,46.31" fill="none" stroke="var(--puu-viiva,#5d4a33)" stroke-width="0.9" stroke-opacity=".7" stroke-linejoin="round"></polygon><polygon points="118.87,51.54 118.2,51.09 86.22,66.59 85.55,67.7 85.55,78.62 86.22,79.07 118.2,63.57 118.87,62.46" fill="var(--puu-paa,#d2bd97)"></polygon><polygon points="118.87,51.54 118.2,51.09 86.22,66.59 85.55,67.7 85.55,78.62 86.22,79.07 118.2,63.57 118.87,62.46" fill="url(#yh-lk-tasainen-p-valo)"></polygon><polygon points="118.87,51.54 118.2,51.09 86.22,66.59 85.55,67.7 85.55,78.62 86.22,79.07 118.2,63.57 118.87,62.46" fill="none" stroke="var(--puu-viiva,#5d4a33)" stroke-width="0.9" stroke-opacity=".7" stroke-linejoin="round"></polygon><clipPath id="yh-lk-tasainen-p-0-paa"><polygon points="118.87,51.54 118.2,51.09 86.22,66.59 85.55,67.7 85.55,78.62 86.22,79.07 118.2,63.57 118.87,62.46"></polygon></clipPath><g clip-path="url(#yh-lk-tasainen-p-0-paa)"><polyline points="119.96,62.71 119.74,62.19 119.56,61.66 119.39,61.12 119.25,60.56 119.13,59.99 119.04,59.41 118.97,58.83 118.91,58.23 118.88,57.62 118.87,57 118.88,56.37 118.91,55.73 118.97,55.08 119.04,54.42 119.13,53.75 119.25,53.07 119.39,52.38 119.56,51.68 119.74,50.96 119.96,50.23" fill="none" stroke="var(--puu-syy,#9b7c4c)" stroke-width="0.6" stroke-linecap="round" stroke-linejoin="round" opacity="0.29604310252703725"></polyline><polyline points="118.36,63.49 118.17,62.96 118,62.41 117.85,61.86 117.73,61.3 117.62,60.73 117.54,60.14 117.47,59.55 117.42,58.95 117.39,58.34 117.38,57.72 117.39,57.09 117.42,56.46 117.47,55.81 117.54,55.15 117.62,54.49 117.73,53.81 117.85,53.13 118,52.43 118.17,51.73 118.36,51.01" fill="none" stroke="var(--puu-syy,#9b7c4c)" stroke-width="0.6" stroke-linecap="round" stroke-linejoin="round" opacity="0.49217069006524977"></polyline><polyline points="116.41,64.44 116.24,63.89 116.09,63.34 115.96,62.78 115.85,62.21 115.75,61.63 115.68,61.05 115.62,60.45 115.57,59.85 115.55,59.24 115.54,58.62 115.55,57.99 115.57,57.35 115.62,56.71 115.68,56.05 115.75,55.39 115.85,54.72 115.96,54.04 116.09,53.36 116.24,52.66 116.41,51.96" fill="none" stroke="var(--puu-syy,#9b7c4c)" stroke-width="0.6" stroke-linecap="round" stroke-linejoin="round" opacity="0.35179382462985814"></polyline><polyline points="115.19,65.02 115.04,64.48 114.9,63.92 114.78,63.35 114.67,62.78 114.58,62.2 114.51,61.61 114.46,61.01 114.42,60.41 114.39,59.8 114.39,59.18 114.39,58.55 114.42,57.91 114.46,57.27 114.51,56.62 114.58,55.96 114.67,55.29 114.78,54.62 114.9,53.93 115.04,53.24 115.19,52.54" fill="none" stroke="var(--puu-syy,#9b7c4c)" stroke-width="0.6" stroke-linecap="round" stroke-linejoin="round" opacity="0.5353035973291844"></polyline><polyline points="113.82,65.69 113.67,65.14 113.54,64.58 113.43,64.01 113.33,63.43 113.25,62.85 113.19,62.25 113.13,61.66 113.1,61.05 113.07,60.44 113.07,59.82 113.07,59.19 113.1,58.55 113.13,57.91 113.19,57.26 113.25,56.61 113.33,55.94 113.43,55.27 113.54,54.59 113.67,53.91 113.82,53.21" fill="none" stroke="var(--puu-syy,#9b7c4c)" stroke-width="0.6" stroke-linecap="round" stroke-linejoin="round" opacity="0.3503971886727959"></polyline><polyline points="112.45,66.35 112.31,65.8 112.19,65.23 112.09,64.66 112,64.08 111.92,63.49 111.86,62.9 111.81,62.3 111.77,61.69 111.75,61.08 111.75,60.46 111.75,59.83 111.77,59.19 111.81,58.55 111.86,57.91 111.92,57.25 112,56.59 112.09,55.92 112.19,55.25 112.31,54.56 112.45,53.87" fill="none" stroke="var(--puu-syy,#9b7c4c)" stroke-width="0.6" stroke-linecap="round" stroke-linejoin="round" opacity="0.4375184661056846"></polyline><polyline points="110.78,67.17 110.65,66.6 110.54,66.03 110.44,65.46 110.36,64.87 110.29,64.28 110.23,63.69 110.18,63.09 110.15,62.48 110.13,61.86 110.13,61.24 110.13,60.61 110.15,59.98 110.18,59.34 110.23,58.7 110.29,58.04 110.36,57.38 110.44,56.72 110.54,56.05 110.65,55.37 110.78,54.69" fill="none" stroke="var(--puu-syy,#9b7c4c)" stroke-width="0.6" stroke-linecap="round" stroke-linejoin="round" opacity="0.3062720922846347"></polyline><polyline points="109.46,67.8 109.34,67.24 109.24,66.66 109.15,66.08 109.07,65.5 109,64.91 108.94,64.31 108.9,63.71 108.87,63.1 108.85,62.48 108.85,61.86 108.85,61.23 108.87,60.6 108.9,59.96 108.94,59.32 109,58.67 109.07,58.01 109.15,57.35 109.24,56.68 109.34,56 109.46,55.32" fill="none" stroke="var(--puu-syy,#9b7c4c)" stroke-width="0.6" stroke-linecap="round" stroke-linejoin="round" opacity="0.45448594878427684"></polyline><polyline points="108.09,68.47 107.97,67.9 107.87,67.33 107.79,66.74 107.71,66.16 107.65,65.56 107.6,64.96 107.56,64.36 107.53,63.75 107.51,63.13 107.5,62.51 107.51,61.89 107.53,61.25 107.56,60.62 107.6,59.97 107.65,59.32 107.71,58.67 107.79,58.01 107.87,57.34 107.97,56.67 108.09,55.99" fill="none" stroke="var(--puu-syy,#9b7c4c)" stroke-width="0.6" stroke-linecap="round" stroke-linejoin="round" opacity="0.28796386742033064"></polyline><polyline points="106.9,69.05 106.8,68.47 106.7,67.89 106.62,67.31 106.54,66.72 106.48,66.13 106.43,65.53 106.4,64.92 106.37,64.31 106.35,63.7 106.35,63.07 106.35,62.45 106.37,61.82 106.4,61.18 106.43,60.54 106.48,59.89 106.54,59.23 106.62,58.58 106.7,57.91 106.8,57.24 106.9,56.57" fill="none" stroke="var(--puu-syy,#9b7c4c)" stroke-width="0.6" stroke-linecap="round" stroke-linejoin="round" opacity="0.5350253488775343"></polyline><polyline points="105.22,69.86 105.12,69.28 105.03,68.7 104.95,68.12 104.89,67.53 104.83,66.93 104.78,66.33 104.75,65.72 104.72,65.11 104.7,64.5 104.7,63.87 104.7,63.25 104.72,62.62 104.75,61.98 104.78,61.34 104.83,60.69 104.89,60.04 104.95,59.38 105.03,58.72 105.12,58.05 105.22,57.38" fill="none" stroke="var(--puu-syy,#9b7c4c)" stroke-width="0.6" stroke-linecap="round" stroke-linejoin="round" opacity="0.2631711358297616"></polyline><polyline points="104.05,70.43 103.96,69.85 103.87,69.27 103.8,68.68 103.73,68.09 103.68,67.49 103.63,66.89 103.6,66.28 103.57,65.67 103.56,65.05 103.55,64.43 103.56,63.8 103.57,63.17 103.6,62.54 103.63,61.9 103.68,61.25 103.73,60.6 103.8,59.94 103.87,59.28 103.96,58.62 104.05,57.95" fill="none" stroke="var(--puu-syy,#9b7c4c)" stroke-width="0.6" stroke-linecap="round" stroke-linejoin="round" opacity="0.523143195239827"></polyline><polyline points="102.25,71.3 102.16,70.72 102.08,70.13 102.01,69.54 101.95,68.95 101.9,68.35 101.86,67.75 101.82,67.14 101.8,66.53 101.79,65.91 101.78,65.29 101.79,64.66 101.8,64.03 101.82,63.4 101.86,62.76 101.9,62.11 101.95,61.46 102.01,60.81 102.08,60.15 102.16,59.49 102.25,58.82" fill="none" stroke="var(--puu-syy,#9b7c4c)" stroke-width="0.6" stroke-linecap="round" stroke-linejoin="round" opacity="0.33576485202647743"></polyline><polyline points="100.71,72.05 100.62,71.47 100.55,70.88 100.48,70.29 100.42,69.69 100.37,69.09 100.33,68.49 100.3,67.88 100.28,67.27 100.26,66.65 100.26,66.03 100.26,65.4 100.28,64.77 100.3,64.14 100.33,63.5 100.37,62.85 100.42,62.2 100.48,61.55 100.55,60.9 100.62,60.23 100.71,59.57" fill="none" stroke="var(--puu-syy,#9b7c4c)" stroke-width="0.6" stroke-linecap="round" stroke-linejoin="round" opacity="0.4867515037860721"></polyline><polyline points="99.47,72.65 99.38,72.07 99.31,71.48 99.24,70.89 99.19,70.29 99.14,69.69 99.1,69.08 99.07,68.48 99.05,67.86 99.04,67.24 99.03,66.62 99.04,66 99.05,65.37 99.07,64.73 99.1,64.09 99.14,63.45 99.19,62.8 99.24,62.15 99.31,61.5 99.38,60.84 99.47,60.17" fill="none" stroke="var(--puu-syy,#9b7c4c)" stroke-width="0.6" stroke-linecap="round" stroke-linejoin="round" opacity="0.3116745337564498"></polyline><polyline points="97.77,73.48 97.69,72.89 97.62,72.3 97.56,71.71 97.5,71.11 97.46,70.51 97.42,69.9 97.39,69.29 97.37,68.68 97.36,68.06 97.35,67.44 97.36,66.81 97.37,66.18 97.39,65.55 97.42,64.91 97.46,64.27 97.5,63.62 97.56,62.97 97.62,62.32 97.69,61.66 97.77,61" fill="none" stroke="var(--puu-syy,#9b7c4c)" stroke-width="0.6" stroke-linecap="round" stroke-linejoin="round" opacity="0.42494072671048344"></polyline><polyline points="96.41,74.13 96.34,73.54 96.27,72.95 96.21,72.36 96.16,71.76 96.11,71.16 96.08,70.55 96.05,69.94 96.03,69.33 96.02,68.71 96.02,68.08 96.02,67.46 96.03,66.83 96.05,66.2 96.08,65.56 96.11,64.92 96.16,64.27 96.21,63.62 96.27,62.97 96.34,62.31 96.41,61.65" fill="none" stroke="var(--puu-syy,#9b7c4c)" stroke-width="0.6" stroke-linecap="round" stroke-linejoin="round" opacity="0.32051667996682226"></polyline><polyline points="94.9,74.87 94.83,74.28 94.76,73.68 94.71,73.09 94.66,72.49 94.61,71.89 94.58,71.28 94.55,70.67 94.53,70.05 94.52,69.43 94.52,68.81 94.52,68.19 94.53,67.56 94.55,66.92 94.58,66.29 94.61,65.65 94.66,65 94.71,64.35 94.76,63.7 94.83,63.05 94.9,62.39" fill="none" stroke="var(--puu-syy,#9b7c4c)" stroke-width="0.6" stroke-linecap="round" stroke-linejoin="round" opacity="0.43568238920532165"></polyline><polyline points="93.51,75.54 93.44,74.95 93.38,74.36 93.32,73.76 93.27,73.16 93.23,72.55 93.2,71.95 93.17,71.34 93.16,70.72 93.14,70.1 93.14,69.48 93.14,68.85 93.16,68.22 93.17,67.59 93.2,66.95 93.23,66.31 93.27,65.67 93.32,65.02 93.38,64.37 93.44,63.72 93.51,63.06" fill="none" stroke="var(--puu-syy,#9b7c4c)" stroke-width="0.6" stroke-linecap="round" stroke-linejoin="round" opacity="0.2898403762746602"></polyline><polyline points="92.23,76.16 92.17,75.57 92.1,74.97 92.05,74.38 92,73.77 91.96,73.17 91.93,72.56 91.91,71.95 91.89,71.33 91.88,70.72 91.88,70.09 91.88,69.47 91.89,68.84 91.91,68.21 91.93,67.57 91.96,66.93 92,66.29 92.05,65.64 92.1,64.99 92.17,64.34 92.23,63.68" fill="none" stroke="var(--puu-syy,#9b7c4c)" stroke-width="0.6" stroke-linecap="round" stroke-linejoin="round" opacity="0.5358364136796444"></polyline><polyline points="90.32,77.09 90.25,76.5 90.19,75.9 90.14,75.3 90.1,74.7 90.06,74.09 90.03,73.48 90,72.87 89.99,72.26 89.98,71.64 89.97,71.01 89.98,70.39 89.99,69.76 90,69.13 90.03,68.49 90.06,67.85 90.1,67.21 90.14,66.57 90.19,65.92 90.25,65.26 90.32,64.61" fill="none" stroke="var(--puu-syy,#9b7c4c)" stroke-width="0.6" stroke-linecap="round" stroke-linejoin="round" opacity="0.298865087935701"></polyline><polyline points="88.92,77.77 88.85,77.17 88.8,76.58 88.75,75.98 88.71,75.37 88.67,74.77 88.64,74.16 88.62,73.55 88.6,72.93 88.59,72.31 88.59,71.69 88.59,71.06 88.6,70.43 88.62,69.8 88.64,69.17 88.67,68.53 88.71,67.89 88.75,67.24 88.8,66.59 88.85,65.94 88.92,65.29" fill="none" stroke="var(--puu-syy,#9b7c4c)" stroke-width="0.6" stroke-linecap="round" stroke-linejoin="round" opacity="0.4353381314780563"></polyline><polyline points="87.7,78.36 87.64,77.76 87.59,77.16 87.54,76.56 87.5,75.96 87.46,75.35 87.43,74.74 87.41,74.13 87.39,73.51 87.39,72.89 87.38,72.27 87.39,71.65 87.39,71.02 87.41,70.39 87.43,69.75 87.46,69.11 87.5,68.47 87.54,67.83 87.59,67.18 87.64,66.53 87.7,65.88" fill="none" stroke="var(--puu-syy,#9b7c4c)" stroke-width="0.6" stroke-linecap="round" stroke-linejoin="round" opacity="0.2685856403131038"></polyline><polyline points="85.88,79.24 85.82,78.64 85.77,78.05 85.72,77.44 85.68,76.84 85.65,76.23 85.62,75.62 85.6,75.01 85.58,74.39 85.58,73.77 85.57,73.15 85.58,72.52 85.58,71.9 85.6,71.26 85.62,70.63 85.65,69.99 85.68,69.35 85.72,68.71 85.77,68.06 85.82,67.41 85.88,66.76" fill="none" stroke="var(--puu-syy,#9b7c4c)" stroke-width="0.6" stroke-linecap="round" stroke-linejoin="round" opacity="0.43743998209945856"></polyline><polyline points="85.55,70.87 94.21,65.92 99.54,63.83" fill="none" stroke="var(--puu-viiva,#5d4a33)" stroke-width="0.5" stroke-linecap="round" stroke-linejoin="round" opacity="0.3"></polyline></g><clipPath id="yh-lk-tasainen-p-0-lape"><polygon points="50.65,18.33 118.2,51.09 86.22,66.59 18.68,33.83"></polygon></clipPath><g clip-path="url(#yh-lk-tasainen-p-0-lape)"><polyline points="49.13,19.06 50.89,19.85 52.64,20.64 54.39,21.43 56.14,22.21 57.89,23 59.64,23.8 61.38,24.59 63.11,25.39 64.82,26.2 66.52,27.01 68.21,27.83 69.89,28.65 71.56,29.48 73.23,30.31 74.9,31.14 76.57,31.96 78.25,32.79 79.92,33.62 81.59,34.44 83.26,35.27 84.93,36.1 86.59,36.93 88.25,37.77 89.89,38.61 91.53,39.45 93.16,40.3 94.79,41.15 96.42,41.99 98.05,42.84 99.68,43.69 101.33,44.53 102.98,45.36 104.65,46.19 106.33,47.01 108.03,47.83 109.73,48.64 111.45,49.44 113.18,50.24 114.92,51.04 116.66,51.83" fill="none" stroke="var(--puu-syy,#9b7c4c)" stroke-width="0.6" stroke-linecap="round" stroke-linejoin="round" opacity="0.2529736736603081"></polyline><polyline points="48.16,19.54 49.88,20.34 51.59,21.15 53.3,21.95 55.01,22.76 56.72,23.57 58.43,24.38 60.13,25.2 61.81,26.02 63.49,26.84 65.15,27.68 66.79,28.52 68.41,29.37 70.04,30.22 71.67,31.07 73.31,31.91 74.96,32.74 76.64,33.57 78.32,34.39 80.02,35.2 81.73,36.01 83.44,36.82 85.15,37.63 86.86,38.44 88.56,39.25 90.25,40.07 91.93,40.89 93.61,41.72 95.29,42.54 96.96,43.37 98.64,44.19 100.32,45.01 102.01,45.83 103.7,46.65 105.4,47.46 107.11,48.27 108.83,49.08 110.55,49.88 112.27,50.69 113.99,51.49 115.7,52.3" fill="none" stroke="var(--puu-syy,#9b7c4c)" stroke-width="0.6" stroke-linecap="round" stroke-linejoin="round" opacity="0.34747869074344634"></polyline><polyline points="44.67,21.23 46.34,22.05 48.03,22.87 49.74,23.68 51.47,24.48 53.25,25.26 55.05,26.02 56.86,26.78 58.65,27.55 60.39,28.34 62.07,29.17 63.67,30.03 65.21,30.92 66.74,31.82 68.29,32.71 69.88,33.57 71.53,34.41 73.24,35.22 75,36 76.79,36.77 78.59,37.53 80.4,38.3 82.2,39.06 83.99,39.83 85.75,40.62 87.49,41.41 89.2,42.22 90.88,43.04 92.55,43.87 94.19,44.71 95.83,45.55 97.46,46.4 99.09,47.25 100.72,48.1 102.36,48.94 104,49.78 105.65,50.62 107.3,51.46 108.95,52.3 110.6,53.13 112.25,53.97" fill="none" stroke="var(--puu-syy,#9b7c4c)" stroke-width="0.6" stroke-linecap="round" stroke-linejoin="round" opacity="0.3602503888867795"></polyline><polyline points="41.14,22.94 42.82,23.76 44.55,24.56 46.35,25.33 48.24,26.05 50.23,26.72 52.29,27.36 54.38,27.98 56.41,28.64 58.32,29.35 60.04,30.15 61.58,31.05 62.99,32 64.35,32.98 65.75,33.94 67.24,34.85 68.86,35.7 70.59,36.5 72.4,37.26 74.27,37.99 76.16,38.72 78.05,39.44 79.91,40.17 81.74,40.92 83.52,41.7 85.25,42.5 86.92,43.32 88.55,44.17 90.14,45.04 91.69,45.92 93.23,46.82 94.75,47.72 96.26,48.62 97.78,49.52 99.31,50.42 100.85,51.31 102.4,52.2 103.97,53.07 105.55,53.95 107.14,54.81 108.74,55.68" fill="none" stroke="var(--puu-syy,#9b7c4c)" stroke-width="0.6" stroke-linecap="round" stroke-linejoin="round" opacity="0.18403822753578425"></polyline><polyline points="38.59,24.18 40.32,24.98 42.12,25.74 44.03,26.45 46.07,27.1 48.24,27.69 50.5,28.23 52.79,28.75 55,29.32 57.02,29.98 58.8,30.76 60.33,31.65 61.69,32.63 62.97,33.65 64.29,34.64 65.73,35.58 67.32,36.45 69.05,37.25 70.87,38 72.76,38.72 74.67,39.44 76.57,40.15 78.43,40.89 80.24,41.65 81.98,42.44 83.66,43.27 85.26,44.13 86.81,45.02 88.3,45.93 89.75,46.87 91.18,47.81 92.6,48.76 94.02,49.71 95.45,50.65 96.9,51.59 98.38,52.51 99.89,53.41 101.42,54.31 102.98,55.19 104.56,56.06 106.17,56.92" fill="none" stroke="var(--puu-syy,#9b7c4c)" stroke-width="0.6" stroke-linecap="round" stroke-linejoin="round" opacity="0.2080458132363856"></polyline><polyline points="35.7,25.58 37.33,26.43 38.9,27.3 40.37,28.23 41.72,29.21 42.95,30.25 44.1,31.33 45.23,32.42 46.48,33.45 55.09,30.91 56.93,31.66 58.49,32.54 59.83,33.53 61.07,34.56 62.34,35.59 63.72,36.56 65.26,37.45 66.94,38.27 68.74,39.04 70.61,39.77 72.51,40.49 74.39,41.21 76.22,41.96 78,42.74 79.7,43.55 81.31,44.41 82.85,45.3 84.32,46.22 85.74,47.17 87.12,48.14 88.47,49.12 89.82,50.11 91.19,51.08 92.58,52.04 94.01,52.99 95.48,53.91 96.99,54.82 98.54,55.71 100.13,56.57 101.75,57.42 103.4,58.26" fill="none" stroke="var(--puu-syy,#9b7c4c)" stroke-width="0.6" stroke-linecap="round" stroke-linejoin="round" opacity="0.16162062264978885"></polyline><polyline points="35.32,25.76 36.99,26.59 38.59,27.45 40.08,28.37 41.45,29.34 42.68,30.38 43.82,31.47 44.95,32.56 46.17,33.6 47.61,34.54 49.35,35.34 51.39,35.98 53.69,36.51 60.56,34.81 61.78,35.86 63.11,36.85 64.6,37.77 66.23,38.62 67.98,39.4 69.81,40.15 71.67,40.89 73.52,41.63 75.34,42.39 77.09,43.18 78.78,44 80.39,44.85 81.93,45.74 83.41,46.67 84.83,47.61 86.23,48.57 87.61,49.54 89,50.51 90.4,51.46 91.84,52.4 93.31,53.33 94.83,54.23 96.4,55.11 98,55.97 99.64,56.81 101.31,57.64 103,58.46" fill="none" stroke="var(--puu-syy,#9b7c4c)" stroke-width="0.6" stroke-linecap="round" stroke-linejoin="round" opacity="0.3769011497311294"></polyline><polyline points="32.06,27.34 33.73,28.17 35.35,29.02 36.88,29.92 38.32,30.86 39.65,31.85 40.91,32.88 42.16,33.91 43.48,34.91 44.95,35.83 46.64,36.65 48.55,37.36 50.65,37.98 52.88,38.54 55.15,39.07 57.42,39.61 59.64,40.17 61.81,40.76 63.91,41.38 65.97,42.02 67.97,42.69 69.92,43.38 71.81,44.1 73.63,44.86 75.37,45.65 77.02,46.49 78.6,47.36 80.1,48.27 81.55,49.2 82.96,50.16 84.35,51.12 85.75,52.08 87.16,53.04 88.6,53.98 90.08,54.9 91.6,55.79 93.17,56.67 94.77,57.53 96.41,58.38 98.07,59.21 99.75,60.03" fill="none" stroke="var(--puu-syy,#9b7c4c)" stroke-width="0.6" stroke-linecap="round" stroke-linejoin="round" opacity="0.3508761126920581"></polyline><polyline points="30.12,28.28 31.76,29.13 33.35,29.99 34.89,30.88 36.38,31.8 37.81,32.75 39.2,33.71 40.59,34.67 42.03,35.61 43.58,36.5 45.26,37.32 47.09,38.07 49.04,38.76 51.09,39.41 53.2,40.02 55.33,40.63 57.47,41.23 59.6,41.83 61.71,42.45 63.79,43.08 65.85,43.72 67.86,44.38 69.81,45.07 71.69,45.79 73.49,46.56 75.2,47.37 76.83,48.22 78.37,49.11 79.86,50.03 81.29,50.97 82.7,51.92 84.1,52.88 85.51,53.84 86.94,54.78 88.4,55.71 89.9,56.62 91.43,57.52 93,58.4 94.59,59.26 96.2,60.12 97.82,60.97" fill="none" stroke="var(--puu-syy,#9b7c4c)" stroke-width="0.6" stroke-linecap="round" stroke-linejoin="round" opacity="0.23346361564472318"></polyline><polyline points="27.06,29.77 28.68,30.62 30.27,31.49 31.85,32.36 33.41,33.24 34.94,34.14 36.45,35.04 37.95,35.95 39.46,36.86 40.96,37.77 42.45,38.68 43.92,39.61 45.31,40.57 46.61,41.58 47.79,42.65 48.83,43.78 49.75,44.97 50.59,46.2 51.36,47.46 52.14,48.73 52.96,49.97 53.89,51.15 54.99,52.26 56.3,53.26 57.85,54.14 59.67,54.9 61.74,55.54 64.03,56.06 66.51,56.5 69.11,56.88 71.78,57.22 74.46,57.56 77.09,57.92 79.64,58.32 82.09,58.77 84.41,59.29 86.6,59.86 88.67,60.49 90.64,61.17 92.52,61.9 94.33,62.66" fill="none" stroke="var(--puu-syy,#9b7c4c)" stroke-width="0.6" stroke-linecap="round" stroke-linejoin="round" opacity="0.17739754214882852"></polyline><polyline points="25.09,30.72 26.73,31.57 28.36,32.41 29.99,33.26 31.61,34.11 33.23,34.97 34.83,35.83 36.43,36.69 38.01,37.56 39.58,38.44 41.12,39.33 42.62,40.24 44.05,41.19 45.38,42.18 46.6,43.22 47.7,44.33 48.69,45.48 49.59,46.69 50.44,47.91 51.27,49.15 52.14,50.36 53.11,51.53 54.22,52.63 55.53,53.64 57.06,54.53 58.83,55.31 60.83,55.98 63.04,56.54 65.42,57.03 67.92,57.45 70.48,57.85 73.05,58.24 75.58,58.65 78.03,59.1 80.39,59.6 82.63,60.15 84.76,60.75 86.79,61.41 88.72,62.11 90.57,62.85 92.36,63.62" fill="none" stroke="var(--puu-syy,#9b7c4c)" stroke-width="0.6" stroke-linecap="round" stroke-linejoin="round" opacity="0.31265517419204114"></polyline><polyline points="22.21,32.12 23.91,32.94 25.61,33.75 27.31,34.56 29.01,35.37 30.71,36.19 32.4,37 34.08,37.83 35.74,38.66 37.37,39.51 38.96,40.38 40.5,41.27 41.96,42.2 43.33,43.17 44.6,44.19 45.77,45.27 46.83,46.39 47.82,47.55 48.75,48.73 49.67,49.92 50.61,51.11 51.63,52.25 52.77,53.33 54.08,54.34 55.58,55.25 57.28,56.06 59.18,56.78 61.27,57.4 63.51,57.96 65.85,58.46 68.25,58.93 70.67,59.4 73.06,59.88 75.39,60.38 77.64,60.93 79.81,61.51 81.89,62.14 83.89,62.81 85.81,63.52 87.68,64.25 89.5,65.01" fill="none" stroke="var(--puu-syy,#9b7c4c)" stroke-width="0.6" stroke-linecap="round" stroke-linejoin="round" opacity="0.246814510114491"></polyline><polyline points="20.56,32.92 22.31,33.71 24.05,34.5 25.79,35.3 27.53,36.09 29.26,36.89 30.97,37.7 32.66,38.52 34.33,39.35 35.96,40.19 37.54,41.06 39.07,41.96 40.52,42.89 41.89,43.87 43.17,44.89 44.36,45.95 45.45,47.06 46.48,48.2 47.46,49.36 48.42,50.53 49.41,51.69 50.47,52.81 51.64,53.88 52.96,54.88 54.45,55.8 56.12,56.62 57.98,57.36 60,58.02 62.16,58.61 64.42,59.15 66.74,59.66 69.08,60.16 71.41,60.67 73.69,61.21 75.91,61.77 78.07,62.36 80.14,62.99 82.15,63.65 84.1,64.35 86,65.07 87.85,65.8" fill="none" stroke="var(--puu-syy,#9b7c4c)" stroke-width="0.6" stroke-linecap="round" stroke-linejoin="round" opacity="0.18771602207794785"></polyline></g><g clip-path="url(#yh-lk-tasainen-p-0-lape)"><polygon points="56.57,36.24 55.43,36.49 54.13,36.57 52.76,36.47 51.37,36.21 50.04,35.79 48.83,35.24 47.81,34.59 47.02,33.86 46.51,33.1 46.3,32.34 46.41,31.62 46.81,30.97 47.51,30.44 48.45,30.04 49.6,29.79 50.9,29.72 52.27,29.81 53.66,30.07 54.99,30.49 56.2,31.04 57.22,31.69 58.01,32.42 58.52,33.18 58.72,33.94 58.62,34.66 58.21,35.31 57.52,35.84" fill="var(--puu-syy,#9b7c4c)" opacity=".28"></polygon><polygon points="55.26,35.24 54.52,35.39 53.68,35.43 52.78,35.36 51.87,35.17 50.99,34.89 50.19,34.51 49.5,34.07 48.97,33.58 48.61,33.06 48.45,32.56 48.49,32.08 48.73,31.65 49.17,31.3 49.77,31.04 50.51,30.89 51.35,30.85 52.24,30.92 53.16,31.11 54.04,31.39 54.84,31.77 55.53,32.21 56.06,32.7 56.42,33.22 56.58,33.73 56.54,34.2 56.3,34.63 55.86,34.98" fill="var(--puu-oksa,#6e5432)" opacity=".72"></polygon><polygon points="54,34.27 53.61,34.35 53.16,34.37 52.69,34.33 52.2,34.23 51.73,34.07 51.3,33.87 50.93,33.63 50.64,33.36 50.45,33.09 50.36,32.82 50.37,32.56 50.49,32.33 50.72,32.15 51.03,32.01 51.42,31.93 51.87,31.91 52.34,31.95 52.83,32.05 53.3,32.21 53.73,32.41 54.1,32.65 54.39,32.92 54.58,33.19 54.67,33.47 54.66,33.72 54.53,33.95 54.31,34.14" fill="var(--puu-oksa,#6e5432)" opacity=".55"></polygon><polygon points="55.26,35.24 54.52,35.39 53.68,35.43 52.78,35.36 51.87,35.17 50.99,34.89 50.19,34.51 49.5,34.07 48.97,33.58 48.61,33.06 48.45,32.56 48.49,32.08 48.73,31.65 49.17,31.3 49.77,31.04 50.51,30.89 51.35,30.85 52.24,30.92 53.16,31.11 54.04,31.39 54.84,31.77 55.53,32.21 56.06,32.7 56.42,33.22 56.58,33.73 56.54,34.2 56.3,34.63 55.86,34.98" fill="none" stroke="var(--puu-viiva,#5d4a33)" stroke-width="0.5" opacity=".45"></polygon></g><polygon points="46.2,54.91 46.12,54.34 45.88,53.73 45.51,53.1 45.01,52.48 44.41,51.91 43.75,51.41 43.04,51.01 42.34,50.73 41.68,50.58 41.08,50.58 40.58,50.71 40.2,50.97 39.97,51.36 39.89,51.85 39.97,52.41 40.2,53.03 40.58,53.66 41.08,54.28 41.68,54.85 42.34,55.35 43.04,55.74 43.75,56.03 44.41,56.17 45.01,56.18 45.51,56.05 45.88,55.78 46.12,55.4" fill="var(--puu-syy,#9b7c4c)" opacity=".26"></polygon><polygon points="45.09,54.37 45.04,54 44.89,53.6 44.65,53.19 44.32,52.79 43.93,52.42 43.5,52.09 43.04,51.83 42.59,51.65 42.16,51.55 41.77,51.55 41.44,51.64 41.2,51.81 41.05,52.07 41,52.38 41.05,52.75 41.2,53.15 41.44,53.57 41.77,53.97 42.16,54.34 42.59,54.67 43.04,54.93 43.5,55.11 43.93,55.2 44.32,55.21 44.65,55.12 44.89,54.95 45.04,54.69" fill="var(--puu-oksa,#6e5432)" opacity=".6"></polygon><polyline points="18,44.96 22.82,47.41 27.65,49.8 32.47,52.12 37.3,54.38 42.12,56.58 46.95,58.74 51.77,60.88 56.6,63.02 61.42,65.18 66.25,67.38 71.07,69.63 75.9,71.95 80.72,74.34 85.55,76.79" fill="none" stroke="var(--puu-syy,#9b7c4c)" stroke-width="0.5" stroke-linecap="round" stroke-linejoin="round" opacity="0.16"></polyline><polyline points="18,42.12 22.82,44.27 27.65,46.41 32.47,48.55 37.3,50.72 42.12,52.93 46.95,55.19 51.77,57.53 56.6,59.93 61.42,62.39 66.25,64.89 71.07,67.43 75.9,69.97 80.72,72.5 85.55,75" fill="none" stroke="var(--puu-syy,#9b7c4c)" stroke-width="0.5" stroke-linecap="round" stroke-linejoin="round" opacity="0.16"></polyline><polyline points="18,38.48 22.82,40.76 27.65,43.1 32.47,45.51 37.3,47.98 42.12,50.49 46.95,53.03 51.77,55.58 56.6,58.1 61.42,60.59 66.25,63.03 71.07,65.4 75.9,67.71 80.72,69.95 85.55,72.14" fill="none" stroke="var(--puu-syy,#9b7c4c)" stroke-width="0.5" stroke-linecap="round" stroke-linejoin="round" opacity="0.16"></polyline><polyline points="18,36.1 22.82,38.64 27.65,41.18 32.47,43.7 37.3,46.18 42.12,48.61 46.95,50.97 51.77,53.26 56.6,55.5 61.42,57.68 66.25,59.83 71.07,61.97 75.9,64.11 80.72,66.28 85.55,68.51" fill="none" stroke="var(--puu-syy,#9b7c4c)" stroke-width="0.5" stroke-linecap="round" stroke-linejoin="round" opacity="0.16"></polyline><line x1="68.43584000000001" y1="74.44080000000001" x2="68.43584000000001" y2="54.94080000000001" stroke="var(--ink-3,#6f6d6b)" stroke-width="0.81" stroke-dasharray="2.7 2.7" opacity=".7"></line></svg>